<svg width="571" height="306" viewBox="0 0 571 306" fill="none" xmlns="http://www.w3.org/2000/svg">
<g clip-path="url(#clip0_118_617)">
<mask id="mask0_118_617" style="mask-type:luminance" maskUnits="userSpaceOnUse" x="0" y="0" width="571" height="306">
<path d="M0 0L571 0L571 306L0 306L0 0Z" fill="white"/>
</mask>
<g mask="url(#mask0_118_617)">
<path d="M569.685 300.832L1.31592 304.688L569.685 300.832Z" fill="white"/>
<path d="M569.685 300.832L1.3159 304.688" stroke="white" stroke-width="4" stroke-miterlimit="10" stroke-linejoin="round"/>
<path d="M346.324 92.8863C344.848 84.6584 337.676 78.6694 329.301 78.6694L89.0637 78.6694C78.4477 78.6694 70.3376 88.1267 71.9766 98.5949L97.6244 262.367C98.9496 270.827 106.29 277.039 114.869 276.961L358.456 274.746C369.164 274.648 377.211 264.962 375.322 254.442L346.324 92.8863Z" fill="#1E1E1D" stroke="white" stroke-width="4" stroke-miterlimit="10" stroke-linejoin="round"/>
<path opacity="0.496108" d="M337.257 94.8279C336.469 90.4084 332.613 87.1927 328.114 87.2039L91.11 87.7907C85.4175 87.8052 81.0846 92.8915 81.987 98.5004L107.663 258.207C108.389 262.724 112.316 266.032 116.9 265.986L356.406 263.649C362.134 263.593 366.439 258.414 365.435 252.784L337.257 94.8279Z" fill="white" fill-opacity="0.1" stroke="white" stroke-width="4" stroke-miterlimit="10" stroke-linejoin="round"/>
<mask id="mask1_118_617" style="mask-type:luminance" maskUnits="userSpaceOnUse" x="81" y="87" width="285" height="179">
<path d="M337.257 94.8279C336.469 90.4084 332.613 87.1927 328.114 87.2039L91.11 87.7907C85.4175 87.8052 81.0846 92.8915 81.987 98.5004L107.663 258.207C108.389 262.724 112.316 266.032 116.9 265.986L356.406 263.649C362.134 263.593 366.439 258.414 365.435 252.784L337.257 94.8279Z" fill="white"/>
</mask>
<g mask="url(#mask1_118_617)">
<path opacity="0.0896536" d="M392.732 230.93L122.549 33.7524L94.0249 72.6811L364.208 269.858L392.732 230.93Z" fill="white" fill-opacity="0.4"/>
<path opacity="0.0896536" d="M351.038 270.573L80.8546 73.396L71.7657 85.8005L341.949 282.978L351.038 270.573Z" fill="white" fill-opacity="0.4"/>
</g>
<path d="M496.701 275.792C495.371 275.792 488.386 275.847 487.001 275.855L105.1 278.07C98.8176 278.106 93.7546 283.231 93.7908 289.516C93.8276 295.802 98.9504 300.868 105.233 300.831L487.133 298.616C492.058 298.587 498.114 292.924 498.952 288.343C499.74 284.034 498.846 275.792 496.701 275.792Z" fill="white" stroke="#1E1E1D" stroke-width="4" stroke-miterlimit="10" stroke-linejoin="round"/>
<path d="M315.309 276.85L105.1 278.07C98.8177 278.106 93.7547 283.231 93.7909 289.516C93.8278 295.802 98.9506 300.868 105.233 300.831L305.337 299.671C305.337 299.671 312.621 296.812 315.113 291.107C317.607 285.402 315.309 276.85 315.309 276.85Z" fill="white" stroke="#1E1E1D" stroke-width="4" stroke-miterlimit="10" stroke-linejoin="round"/>
<path d="M315.647 276.962C316.188 277.751 317.52 287.06 314.897 292.345C312.067 298.047 305.242 299.724 305.242 299.724" stroke="#1E1E1D" stroke-width="4" stroke-miterlimit="10" stroke-linejoin="round"/>
<path d="M123.574 291.15C123.574 289.874 122.538 288.841 121.26 288.841H113.807C112.529 288.841 111.493 289.874 111.493 291.15C111.493 292.426 112.529 293.46 113.807 293.46H121.26C122.538 293.46 123.574 292.426 123.574 291.15Z" fill="#272725"/>
<path d="M138.159 291.15C138.159 289.874 137.122 288.841 135.844 288.841H128.39C127.113 288.841 126.077 289.874 126.077 291.15C126.077 292.426 127.113 293.46 128.39 293.46H135.844C137.122 293.46 138.159 292.426 138.159 291.15Z" fill="#272725"/>
<path opacity="0.312354" d="M189.864 81.2765C188.847 77.2778 185.241 74.4783 181.107 74.4783L146.274 74.4783L42.3296 74.4783C36.4589 74.4783 32.147 79.9782 33.5591 85.6645L39.0154 107.636C40.021 111.687 43.6798 114.519 47.8608 114.484L186.478 113.331C192.338 113.283 196.602 107.765 195.16 102.096L189.864 81.2765Z" fill="#1E1E1D" stroke="#1E1E1D" stroke-width="4" stroke-miterlimit="10" stroke-linejoin="round"/>
<path d="M198.254 69.1503C197.237 65.1516 193.63 62.3521 189.496 62.3521L50.7188 62.3521C44.8482 62.3521 40.5369 67.852 41.949 73.5383L47.4053 95.5098C48.4109 99.5597 52.0697 102.393 56.2501 102.358L194.868 101.205C200.728 101.157 204.992 95.6391 203.55 89.9698L198.254 69.1503Z" fill="white" stroke="url(#paint0_linear_118_617)" stroke-width="4" stroke-miterlimit="10" stroke-linejoin="round"/>
<path d="M187.883 75.1562C187.673 74.3285 186.927 73.7483 186.071 73.7483H174.965C173.753 73.7483 172.863 74.8825 173.152 76.0575L173.175 76.15C173.381 76.9889 174.139 77.5757 175.004 77.5685L186.087 77.476C187.297 77.4655 188.178 76.3273 187.883 75.1562Z" fill="url(#paint1_linear_118_617)"/>
<path d="M192.636 88.5505C192.427 87.7228 191.681 87.1426 190.825 87.1426H179.719C178.507 87.1426 177.616 88.2768 177.905 89.4518L177.928 89.5443C178.135 90.3832 178.892 90.97 179.757 90.9628L190.841 90.8702C192.05 90.8597 192.932 89.7215 192.636 88.5505Z" fill="#B8B8AE"/>
<path d="M140.787 81.7641C140.466 81.1911 139.876 80.8386 139.238 80.8386L110.246 80.8386C108.874 80.8386 108.011 82.3759 108.688 83.6152L108.748 83.7248C109.067 84.3096 109.665 84.67 110.312 84.6674L139.245 84.5578C140.622 84.5532 141.479 83.0014 140.787 81.7641Z" fill="url(#paint2_linear_118_617)"/>
<path d="M103.378 75.145C103.168 74.3173 102.422 73.7371 101.566 73.7371H90.4603C89.2482 73.7371 88.3577 74.8713 88.647 76.0463L88.6701 76.1388C88.8766 76.9777 89.6336 77.5645 90.4992 77.5573L101.582 77.4647C102.792 77.4542 103.673 76.316 103.378 75.145Z" fill="url(#paint3_linear_118_617)"/>
<path d="M108.131 88.5395C107.922 87.7118 107.176 87.1309 106.32 87.1309H95.2142C94.0021 87.1309 93.1109 88.2658 93.4003 89.4401L93.4233 89.5333C93.6298 90.3721 94.3868 90.959 95.2524 90.9517L106.336 90.8592C107.546 90.8487 108.427 89.7105 108.131 88.5395Z" fill="url(#paint4_linear_118_617)"/>
<path d="M169.37 74.4513C169.017 74.0069 168.48 73.7483 167.911 73.7483L125.538 73.7483C123.99 73.7483 123.118 75.5245 124.066 76.746L124.154 76.8583C124.508 77.3138 125.053 77.5803 125.631 77.5783L167.917 77.4661C169.473 77.4622 170.338 75.6676 169.37 74.4513Z" fill="#B8B8AE"/>
<path d="M174.124 87.8456C173.77 87.4012 173.234 87.1426 172.665 87.1426L130.292 87.1426C128.743 87.1426 127.871 88.9188 128.82 90.1403L128.907 90.2526C129.261 90.7081 129.807 90.9746 130.384 90.9726L172.67 90.8604C174.226 90.8565 175.092 89.0619 174.124 87.8456Z" fill="#B8B8AE"/>
<path d="M189.626 81.5304C189.273 81.086 188.735 80.8274 188.167 80.8274L145.794 80.8274C144.246 80.8274 143.373 82.6036 144.322 83.8251L144.409 83.9374C144.763 84.3929 145.309 84.6594 145.886 84.6574L188.172 84.5452C189.729 84.5413 190.593 82.7467 189.626 81.5304Z" fill="#B8B8AE"/>
<path d="M119.928 75.1824C119.733 74.3363 118.978 73.7371 118.108 73.7371H108.266C107.069 73.7371 106.181 74.845 106.443 76.0108L106.464 76.1007C106.657 76.958 107.423 77.5638 108.303 77.556L118.125 77.466C119.318 77.4549 120.196 76.3443 119.928 75.1824Z" fill="#B8B8AE"/>
<path d="M124.681 88.5769C124.486 87.7308 123.731 87.1309 122.861 87.1309H113.02C111.823 87.1309 110.934 88.2395 111.197 89.4053L111.217 89.4952C111.41 90.3518 112.177 90.9583 113.057 90.9504L122.878 90.8605C124.072 90.8493 124.95 89.7387 124.681 88.5769Z" fill="#B8B8AE"/>
<path d="M106.342 82.2847C106.121 81.4379 105.268 80.8386 104.284 80.8386H93.1632C91.8103 80.8386 90.806 81.9466 91.1033 83.1124L91.1263 83.2023C91.3447 84.0596 92.2109 84.6654 93.2053 84.6575L104.304 84.5676C105.653 84.5564 106.645 83.4458 106.342 82.2847Z" fill="#B8B8AE"/>
<path d="M78.3844 71.1405C77.926 69.4338 76.3764 68.2471 74.6059 68.2471L53.3693 68.2471C50.8095 68.2471 48.9397 70.6606 49.5836 73.1333L55.2957 95.0699C55.7555 96.8376 57.3826 98.0506 59.2117 97.9896L80.4384 97.2839C82.9555 97.1999 84.7392 94.7988 84.0867 92.3715L78.3844 71.1405Z" fill="#B8B8AE"/>
<path opacity="0.281455" d="M372.019 134.556C371.509 131.952 369.223 130.073 366.564 130.073L209.391 130.073C205.907 130.073 203.282 133.235 203.931 136.652L226.536 255.65C227.043 258.32 229.414 260.23 232.136 260.161L389.206 256.198C392.644 256.111 395.178 252.96 394.519 249.591L372.019 134.556Z" fill="#1E1E1D" stroke="#1E1E1D" stroke-width="6" stroke-miterlimit="10" stroke-linejoin="round"/>
<path d="M382.921 121.653C382.411 119.049 380.125 117.169 377.467 117.169L220.293 117.169C216.809 117.169 214.184 120.333 214.833 123.748L237.438 242.747C237.946 245.417 240.316 247.326 243.038 247.258L400.108 243.295C403.546 243.208 406.08 240.057 405.421 236.688L382.921 121.653Z" fill="#1E1E1D" stroke="url(#paint5_linear_118_617)" stroke-width="6" stroke-miterlimit="10" stroke-linejoin="round"/>
<path opacity="0.294476" d="M161.813 141.106C161.51 139.558 160.152 138.442 158.572 138.442L65.1796 138.442C63.1091 138.442 61.5497 140.321 61.9351 142.351L75.3674 213.06C75.6686 214.647 77.0774 215.781 78.6947 215.74L172.025 213.386C174.068 213.334 175.574 211.461 175.183 209.46L161.813 141.106Z" fill="url(#paint6_linear_118_617)" stroke="url(#paint7_linear_118_617)" stroke-width="6" stroke-miterlimit="10" stroke-linejoin="round"/>
<path opacity="0.294476" d="M205.796 193.786C205.563 192.593 204.516 191.733 203.299 191.733L131.34 191.733C129.744 191.733 128.543 193.181 128.84 194.745L139.19 249.226C139.422 250.449 140.507 251.323 141.753 251.292L213.665 249.477C215.239 249.438 216.399 247.995 216.098 246.452L205.796 193.786Z" fill="white" stroke="white" stroke-width="6" stroke-miterlimit="10" stroke-linejoin="round"/>
<path d="M337.15 144.802C337.15 144.802 346.273 192.472 350.359 213.817C354.444 235.163 353.491 230.183 353.491 230.183" stroke="#474747" stroke-width="2" stroke-miterlimit="10" stroke-linecap="round" stroke-linejoin="round"/>
<path d="M382.584 166.404C382.529 165.471 381.727 164.759 380.792 164.813L367.373 165.595C366.438 165.65 365.724 166.451 365.779 167.384L365.781 167.421C365.835 168.354 366.638 169.066 367.573 169.012L380.992 168.23C381.927 168.175 382.641 167.374 382.586 166.441L382.584 166.404Z" fill="#6F6D6D"/>
<path d="M364.833 167.439C364.779 166.506 363.977 165.793 363.041 165.848L350.411 166.584C349.476 166.639 348.763 167.44 348.817 168.372C348.872 169.306 349.674 170.019 350.609 169.964L363.239 169.228C364.174 169.173 364.888 168.372 364.833 167.439Z" fill="#6F6D6D"/>
<path d="M384.392 174.556C384.337 173.623 383.535 172.911 382.599 172.965L375.504 173.379C374.569 173.433 373.855 174.234 373.91 175.168C373.964 176.101 374.767 176.813 375.702 176.759L382.797 176.345C383.733 176.291 384.446 175.49 384.392 174.556Z" fill="#6F6D6D"/>
<path d="M390.104 208.114C390.05 207.181 389.247 206.468 388.312 206.523L381.061 206.946C380.126 207 379.412 207.801 379.467 208.734C379.521 209.668 380.324 210.38 381.259 210.325L388.51 209.903C389.445 209.848 390.159 209.047 390.104 208.114Z" fill="#1E5F6D"/>
<path d="M359.202 176.026C359.148 175.092 358.345 174.379 357.41 174.434L352.219 174.737C351.284 174.792 350.57 175.592 350.624 176.526C350.679 177.459 351.481 178.171 352.417 178.117L357.608 177.814C358.543 177.759 359.257 176.958 359.202 176.026Z" fill="#6F6D6D"/>
<path d="M372.992 175.221C372.937 174.288 372.135 173.575 371.199 173.63L361.708 174.184C360.773 174.238 360.059 175.039 360.114 175.972C360.168 176.905 360.971 177.618 361.906 177.563L371.397 177.01C372.332 176.955 373.046 176.154 372.992 175.221Z" fill="#1E5F6D"/>
<path d="M378.549 208.788C378.494 207.855 377.697 207.142 376.768 207.196L357.765 208.304C356.836 208.358 356.127 209.159 356.182 210.092C356.236 211.026 357.033 211.738 357.962 211.684L376.966 210.576C377.894 210.522 378.603 209.721 378.549 208.788Z" fill="#6F6D6D"/>
<path d="M364.283 183.514C364.229 182.581 363.426 181.869 362.491 181.923L354.039 182.416C353.104 182.471 352.391 183.271 352.445 184.205C352.5 185.138 353.302 185.85 354.237 185.796L362.689 185.303C363.624 185.248 364.338 184.448 364.283 183.514Z" fill="#1E5F6D"/>
<path d="M386.212 182.236C386.158 181.302 385.355 180.59 384.42 180.645L366.843 181.669C365.908 181.724 365.194 182.525 365.249 183.458C365.303 184.391 366.106 185.104 367.041 185.05L384.618 184.024C385.553 183.97 386.267 183.169 386.212 182.236Z" fill="#6F6D6D"/>
<path d="M387.578 191.161C387.523 190.227 386.72 189.515 385.786 189.57L355.249 191.35C354.314 191.404 353.601 192.205 353.655 193.138C353.71 194.072 354.512 194.785 355.447 194.73L385.983 192.949C386.918 192.895 387.633 192.094 387.578 191.161Z" fill="#1E5F6D"/>
<path d="M388.382 199.058C388.327 198.124 387.525 197.412 386.59 197.467L375.504 198.113C374.569 198.168 373.855 198.968 373.91 199.902C373.964 200.835 374.767 201.547 375.702 201.493L386.788 200.846C387.723 200.792 388.436 199.991 388.382 199.058Z" fill="#6F6D6D"/>
<path d="M372.768 199.968C372.713 199.035 371.911 198.322 370.975 198.377L364.062 198.78C363.126 198.834 362.413 199.635 362.467 200.569C362.522 201.502 363.324 202.214 364.26 202.16L371.173 201.757C372.109 201.702 372.822 200.901 372.768 199.968Z" fill="#6F6D6D"/>
<path d="M361.6 200.619C361.545 199.686 360.743 198.974 359.807 199.028L356.053 199.247C355.118 199.302 354.404 200.103 354.459 201.036C354.514 201.969 355.316 202.682 356.251 202.627L360.005 202.408C360.941 202.353 361.654 201.553 361.6 200.619Z" fill="#6F6D6D"/>
<path d="M390.521 215.239C390.467 214.306 389.664 213.593 388.729 213.648L379.425 214.19L367.839 214.866C366.903 214.92 366.19 215.721 366.244 216.654C366.299 217.588 367.101 218.301 368.037 218.245L388.927 217.028C389.862 216.973 390.576 216.173 390.521 215.239Z" fill="#6F6D6D"/>
<path d="M383.214 123.209C382.556 119.707 379.493 117.169 375.923 117.169L222.534 117.169C217.9 117.169 214.4 121.364 215.239 125.914L216.515 130.2C216.555 130.418 384.347 129.244 384.159 128.243L383.214 123.209Z" fill="url(#paint8_linear_118_617)" stroke="url(#paint9_linear_118_617)" stroke-width="5" stroke-miterlimit="10" stroke-linejoin="round"/>
<path d="M327.551 146.185C327.321 145.363 326.56 144.802 325.705 144.824L314.602 145.108C313.39 145.139 312.529 146.296 312.848 147.463L312.873 147.555C313.102 148.388 313.874 148.956 314.739 148.926L325.816 148.55C327.025 148.509 327.876 147.348 327.551 146.185Z" fill="#1E5F6D"/>
<path d="M332.137 161.443C331.907 160.621 331.146 160.06 330.291 160.081L319.189 160.365C317.977 160.397 317.115 161.553 317.435 162.721L317.46 162.812C317.688 163.646 318.46 164.213 319.325 164.184L330.402 163.807C331.612 163.766 332.464 162.606 332.137 161.443Z" fill="#1E5F6D"/>
<path d="M337.848 190.225C337.618 189.402 336.857 188.841 336.002 188.863L324.899 189.147C323.688 189.178 322.826 190.335 323.146 191.502L323.171 191.594C323.399 192.428 324.171 192.995 325.036 192.965L336.113 192.589C337.323 192.548 338.174 191.388 337.848 190.225Z" fill="#1E5F6D"/>
<path d="M336.007 180.449C335.776 179.626 335.015 179.065 334.16 179.088L323.058 179.372C321.846 179.403 320.985 180.56 321.304 181.726L321.329 181.819C321.557 182.652 322.33 183.22 323.194 183.19L334.272 182.813C335.481 182.773 336.333 181.612 336.007 180.449Z" fill="#6F6D6D"/>
<path d="M333.392 171.871C333.162 171.048 332.401 170.487 331.546 170.509L320.443 170.793C319.232 170.824 318.37 171.981 318.69 173.148L318.715 173.24C318.943 174.073 319.715 174.641 320.58 174.612L331.657 174.235C332.867 174.194 333.719 173.034 333.392 171.871Z" fill="#1E5F6D"/>
<path d="M345.254 228.186C345.007 227.369 344.235 226.823 343.381 226.862L332.286 227.366C331.075 227.421 330.236 228.595 330.58 229.755L330.607 229.847C330.851 230.675 331.634 231.227 332.498 231.181L343.566 230.585C344.774 230.52 345.602 229.343 345.254 228.186Z" fill="#6F6D6D"/>
<path d="M344.419 220.888C344.173 220.07 343.4 219.525 342.545 219.563L331.451 220.068C330.24 220.123 329.402 221.297 329.745 222.457L329.772 222.549C330.017 223.377 330.8 223.929 331.664 223.882L342.732 223.287C343.94 223.222 344.768 222.045 344.419 220.888Z" fill="#6F6D6D"/>
<path d="M341.977 212.08C341.731 211.262 340.959 210.717 340.104 210.755L329.009 211.26C327.799 211.315 326.96 212.489 327.303 213.649L327.33 213.741C327.575 214.569 328.358 215.121 329.223 215.074L340.29 214.478C341.498 214.413 342.326 213.237 341.977 212.08Z" fill="#6F6D6D"/>
<path d="M340.785 205.163C340.557 204.339 339.798 203.776 338.942 203.795L327.839 204.043C326.628 204.071 325.762 205.225 326.078 206.392L326.103 206.485C326.328 207.318 327.098 207.889 327.963 207.862L339.042 207.521C340.251 207.484 341.107 206.327 340.785 205.163Z" fill="#1E5F6D"/>
<path d="M280.64 153.996C280.305 153.432 279.706 153.094 279.068 153.11L250.086 153.853C248.714 153.887 247.891 155.446 248.6 156.668L248.662 156.776C248.996 157.352 249.603 157.698 250.251 157.679L279.17 156.829C280.548 156.788 281.364 155.215 280.64 153.996Z" fill="#1E5F6D"/>
<path d="M247.66 163.594C247.43 162.772 246.669 162.211 245.814 162.233L234.711 162.517C233.5 162.548 232.638 163.705 232.958 164.872L232.983 164.964C233.211 165.797 233.983 166.365 234.848 166.335L245.925 165.959C247.135 165.918 247.986 164.757 247.66 163.594Z" fill="#1E5F6D"/>
<path d="M253.371 192.376C253.14 191.553 252.379 190.992 251.524 191.014L240.422 191.299C239.21 191.329 238.348 192.487 238.668 193.653L238.693 193.746C238.922 194.579 239.693 195.146 240.559 195.117L251.636 194.74C252.844 194.699 253.696 193.539 253.371 192.376Z" fill="#1E5F6D"/>
<path d="M251.529 182.601C251.299 181.778 250.538 181.217 249.683 181.239L238.58 181.523C237.369 181.554 236.507 182.711 236.827 183.878L236.852 183.97C237.08 184.804 237.852 185.371 238.717 185.341L249.794 184.965C251.004 184.924 251.855 183.763 251.529 182.601Z" fill="#1E5F6D"/>
<path d="M257.559 215.907C257.312 215.09 256.541 214.544 255.686 214.583L244.592 215.087C243.38 215.143 242.542 216.316 242.885 217.477L242.912 217.569C243.157 218.397 243.94 218.949 244.804 218.902L255.871 218.306C257.08 218.241 257.908 217.064 257.559 215.907Z" fill="#1E5F6D"/>
<path d="M256.549 207.996C256.297 207.179 255.522 206.638 254.667 206.682L243.576 207.254C242.365 207.316 241.534 208.495 241.884 209.653L241.912 209.744C242.161 210.572 242.948 211.119 243.812 211.067L254.876 210.404C256.083 210.332 256.905 209.15 256.549 207.996Z" fill="#1E5F6D"/>
<path d="M309.026 145.954C308.662 145.519 308.118 145.274 307.55 145.289L265.191 146.373C263.643 146.413 262.817 148.211 263.796 149.408L263.886 149.518C264.252 149.964 264.804 150.216 265.382 150.2L307.65 149.005C309.207 148.961 310.025 147.146 309.026 145.954Z" fill="#6F6D6D"/>
<path d="M313.613 161.211C313.249 160.777 312.705 160.531 312.137 160.546L269.778 161.63C268.23 161.67 267.404 163.468 268.383 164.665L268.473 164.775C268.839 165.221 269.391 165.473 269.969 165.457L312.237 164.263C313.793 164.219 314.612 162.403 313.613 161.211Z" fill="#6F6D6D"/>
<path d="M319.324 189.993C318.96 189.558 318.416 189.313 317.848 189.327L275.489 190.412C273.941 190.452 273.115 192.25 274.094 193.446L274.184 193.556C274.55 194.003 275.102 194.255 275.68 194.239L317.948 193.044C319.504 193 320.323 191.184 319.324 189.993Z" fill="#6F6D6D"/>
<path d="M317.897 180.704C317.603 179.989 316.897 179.53 316.123 179.549L297.539 180.025C296.24 180.059 295.372 181.375 295.856 182.578L295.897 182.68C296.188 183.406 296.903 183.873 297.686 183.849L316.23 183.271C317.53 183.23 318.391 181.906 317.897 180.704Z" fill="#6F6D6D"/>
<path d="M292.95 181.22C292.656 180.505 291.95 180.045 291.176 180.065L272.592 180.541C271.293 180.574 270.425 181.891 270.909 183.094L270.949 183.196C271.241 183.922 271.956 184.388 272.739 184.364L291.282 183.786C292.583 183.746 293.444 182.422 292.95 181.22Z" fill="#1E5F6D"/>
<path d="M314.868 171.64C314.504 171.204 313.96 170.959 313.392 170.974L271.033 172.058C269.485 172.098 268.659 173.896 269.638 175.093L269.728 175.203C270.094 175.65 270.646 175.902 271.224 175.885L313.492 174.691C315.048 174.647 315.867 172.831 314.868 171.64Z" fill="#6F6D6D"/>
<path d="M325.894 221.025C325.521 220.597 324.972 220.362 324.405 220.388L282.076 222.313C280.529 222.384 279.738 224.198 280.741 225.375L280.834 225.483C281.208 225.923 281.765 226.163 282.343 226.136L324.579 224.102C326.134 224.028 326.916 222.196 325.894 221.025Z" fill="#1E5F6D"/>
<path d="M323.843 212.627C323.519 211.955 322.824 211.541 322.078 211.575L300.871 212.539C299.542 212.6 298.703 213.989 299.269 215.191L299.317 215.293C299.639 215.976 300.343 216.398 301.099 216.36L322.257 215.292C323.588 215.225 324.421 213.827 323.843 212.627Z" fill="#6F6D6D"/>
<path d="M322.255 204.791C321.89 204.356 321.346 204.111 320.779 204.126L278.42 205.225C276.872 205.265 276.046 207.063 277.026 208.259L277.116 208.369C277.482 208.816 278.035 209.068 278.612 209.051L320.88 207.842C322.436 207.798 323.254 205.982 322.255 204.791Z" fill="#6F6D6D"/>
<path d="M329.457 152.513C329.093 152.078 328.549 151.832 327.98 151.847L285.622 152.932C284.074 152.971 283.247 154.769 284.227 155.966L284.317 156.076C284.683 156.523 285.235 156.775 285.813 156.758L328.081 155.564C329.637 155.52 330.456 153.704 329.457 152.513Z" fill="#6F6D6D"/>
<path d="M337.99 196.758C337.67 196.543 337.291 196.433 336.904 196.443L259.716 198.418C257.914 198.464 257.222 200.786 258.708 201.807L258.87 201.918C259.195 202.142 259.582 202.256 259.976 202.245L337.002 200.158C338.814 200.109 339.495 197.767 337.99 196.758Z" fill="#6F6D6D"/>
<path d="M264.206 163.208C263.989 162.367 263.218 161.787 262.349 161.809L252.51 162.061C251.314 162.092 250.454 163.222 250.747 164.381L250.769 164.47C250.985 165.322 251.767 165.909 252.646 165.878L262.461 165.537C263.655 165.495 264.504 164.362 264.206 163.208Z" fill="#6F6D6D"/>
<path d="M269.917 191.99C269.7 191.149 268.929 190.569 268.059 190.591L258.221 190.843C257.024 190.873 256.165 192.004 256.457 193.163L256.48 193.252C256.695 194.104 257.477 194.69 258.357 194.66L268.172 194.319C269.366 194.277 270.215 193.144 269.917 191.99Z" fill="#6F6D6D"/>
<path d="M268.075 182.214C267.858 181.373 267.088 180.793 266.219 180.815L256.38 181.067C255.184 181.098 254.324 182.229 254.617 183.387L254.639 183.476C254.854 184.328 255.636 184.915 256.515 184.884L266.331 184.543C267.525 184.502 268.373 183.369 268.075 182.214Z" fill="#6F6D6D"/>
<path d="M265.461 173.636C265.244 172.795 264.473 172.215 263.604 172.237L253.765 172.489C252.568 172.52 251.709 173.65 252.002 174.809L252.024 174.898C252.239 175.75 253.021 176.336 253.901 176.306L263.716 175.965C264.91 175.923 265.758 174.79 265.461 173.636Z" fill="#6F6D6D"/>
<path d="M276.537 224.001C276.302 223.165 275.521 222.6 274.652 222.64L264.82 223.087C263.624 223.141 262.787 224.288 263.103 225.441L263.127 225.53C263.359 226.377 264.153 226.948 265.032 226.9L274.839 226.364C276.031 226.299 276.857 225.149 276.537 224.001Z" fill="#6F6D6D"/>
<path d="M295.519 213.673C295.157 213.13 294.536 212.816 293.883 212.846L262.542 214.271C261.103 214.337 260.279 215.937 261.065 217.143L261.134 217.25C261.496 217.804 262.125 218.125 262.788 218.093L294.06 216.561C295.504 216.49 296.321 214.875 295.519 213.673Z" fill="#6F6D6D"/>
<path d="M273.079 207.181C272.84 206.346 272.056 205.786 271.186 205.831L261.358 206.338C260.162 206.4 259.332 207.552 259.655 208.702L259.68 208.791C259.917 209.637 260.714 210.203 261.593 210.149L271.396 209.555C272.588 209.482 273.407 208.327 273.079 207.181Z" fill="#6F6D6D"/>
<path d="M255.586 199.982C255.343 199.142 254.475 198.564 253.492 198.589L242.375 198.874C241.022 198.908 240.047 200.042 240.374 201.2L240.399 201.289C240.639 202.14 241.521 202.724 242.515 202.69L253.607 202.317C254.956 202.271 255.919 201.135 255.586 199.982Z" fill="#6F6D6D"/>
<path d="M245.407 123.698C245.407 122.018 244.042 120.656 242.359 120.656C240.675 120.656 239.31 122.018 239.31 123.698C239.31 125.378 240.675 126.74 242.359 126.74C244.042 126.74 245.407 125.378 245.407 123.698Z" fill="white"/>
<path d="M235.587 123.698C235.587 122.018 234.222 120.656 232.538 120.656C230.855 120.656 229.49 122.018 229.49 123.698C229.49 125.378 230.855 126.74 232.538 126.74C234.222 126.74 235.587 125.378 235.587 123.698Z" fill="#31C8B6"/>
<path d="M226.47 123.698C226.47 122.018 225.105 120.656 223.421 120.656C221.738 120.656 220.373 122.018 220.373 123.698C220.373 125.378 221.738 126.74 223.421 126.74C225.105 126.74 226.47 125.378 226.47 123.698Z" fill="#1E1E1D"/>
<g opacity="0.346735">
<path d="M48.1231 218.653C48.1231 218.653 30.5966 229.324 32.7519 204.551C34.9079 179.778 46.4236 164.733 49.8062 165.015C49.8062 165.015 73.4348 204.847 61.6514 216.874C49.868 228.902 49.599 221.165 48.177 219.965C46.7557 218.766 48.1231 218.653 48.1231 218.653Z" fill="white" stroke="white" stroke-width="2" stroke-miterlimit="10" stroke-linejoin="round"/>
<path d="M37.7073 227.534C37.7073 227.534 55.3166 235.398 54.9358 222.122C54.555 208.846 34.7437 180.687 2.6951 187.471C2.6951 187.471 6.63345 187.066 9.02288 202.175C11.4123 217.285 22.1269 256.287 37.7073 227.534Z" fill="#1E1E1D" stroke="white" stroke-width="2" stroke-miterlimit="10" stroke-linejoin="round"/>
<path d="M49.0056 230.688C49.0056 230.688 51.0537 247.802 48.1868 253.779C48.1868 253.779 42.8975 227.286 28.818 215.93" stroke="white" stroke-width="2" stroke-miterlimit="10" stroke-linejoin="round"/>
<path d="M58.4379 217.152C58.4379 217.152 47.2057 222.575 47.2149 211.163C47.2234 199.752 60.0125 185.361 72.303 189.948C84.5941 194.536 82.0764 197.7 82.0764 197.7C82.0764 197.7 74.1768 194.265 74.4938 210.142C74.7628 223.588 65.6102 227.469 58.4379 217.152Z" fill="url(#paint10_linear_118_617)" stroke="white" stroke-width="2" stroke-miterlimit="10" stroke-linejoin="round"/>
<path d="M61.8555 208.832C61.8555 208.832 53.9466 218.574 52.7614 252.327" stroke="white" stroke-width="2" stroke-miterlimit="10" stroke-linejoin="round"/>
<path d="M72.1792 247.268L72.1792 289.462H72.0766C67.4161 297.388 58.8699 302.754 48.9952 302.754C39.1211 302.754 30.5959 297.388 25.9348 289.462H25.8322L25.8322 247.268H72.1792Z" fill="white" stroke="white" stroke-width="2" stroke-miterlimit="10" stroke-linejoin="round"/>
</g>
<path d="M306.242 35.3225C312.411 35.3225 317.803 39.4899 319.361 45.4467C321.583 53.945 315.223 62.2609 306.424 62.3817L243.375 63.2389C236.633 63.3315 230.843 58.4761 229.794 51.8282L229.662 50.9545C228.366 42.7443 234.717 35.3225 243.045 35.3225L306.242 35.3225ZM244.251 40.1371C239.188 40.1371 235.098 44.2363 235.098 49.2892C235.098 54.3421 239.188 58.4407 244.251 58.4407C249.314 58.4407 253.421 54.3421 253.421 49.2892C253.421 44.2363 249.314 40.1371 244.251 40.1371Z" fill="#31C8B6"/>
<path opacity="0.465736" d="M239.947 28.1724C233.778 28.1974 228.369 24.0516 226.788 18.1007C224.531 9.61227 230.857 1.27015 239.655 1.11459L302.7 0.00265595C309.442 -0.116808 315.251 4.71426 316.327 11.3583L316.463 12.2313C317.791 20.4362 311.471 27.8836 303.144 27.9171L239.947 28.1724ZM301.918 23.107C306.981 23.0867 311.054 18.9718 311.034 13.9189C311.014 8.86595 306.906 4.78383 301.844 4.80417C296.781 4.82452 292.691 8.9401 292.711 13.993C292.731 19.0459 296.855 23.1274 301.918 23.107Z" fill="url(#paint11_linear_118_617)"/>
</g>
</g>
<defs>
<linearGradient id="paint0_linear_118_617" x1="164.645" y1="62.3521" x2="98.0463" y2="104.752" gradientUnits="userSpaceOnUse">
<stop stop-color="#28B1A1"/>
<stop offset="1" stop-color="#053987"/>
</linearGradient>
<linearGradient id="paint1_linear_118_617" x1="184.353" y1="73.7483" x2="178.111" y2="77.5578" gradientUnits="userSpaceOnUse">
<stop stop-color="#28B1A1"/>
<stop offset="1" stop-color="#053987"/>
</linearGradient>
<linearGradient id="paint2_linear_118_617" x1="133.158" y1="80.8386" x2="126.41" y2="89.8586" gradientUnits="userSpaceOnUse">
<stop stop-color="#28B1A1"/>
<stop offset="1" stop-color="#053987"/>
</linearGradient>
<linearGradient id="paint3_linear_118_617" x1="99.848" y1="73.7371" x2="93.6057" y2="77.5466" gradientUnits="userSpaceOnUse">
<stop stop-color="#28B1A1"/>
<stop offset="1" stop-color="#053987"/>
</linearGradient>
<linearGradient id="paint4_linear_118_617" x1="104.601" y1="87.1309" x2="98.3585" y2="90.9401" gradientUnits="userSpaceOnUse">
<stop stop-color="#28B1A1"/>
<stop offset="1" stop-color="#053987"/>
</linearGradient>
<linearGradient id="paint5_linear_118_617" x1="359.418" y1="117.169" x2="254.845" y2="141.259" gradientUnits="userSpaceOnUse">
<stop stop-color="#28B1A1"/>
<stop offset="1" stop-color="#053987"/>
</linearGradient>
<linearGradient id="paint6_linear_118_617" x1="147.848" y1="138.442" x2="85.7104" y2="152.756" gradientUnits="userSpaceOnUse">
<stop stop-color="#28B1A1"/>
<stop offset="1" stop-color="#053987"/>
</linearGradient>
<linearGradient id="paint7_linear_118_617" x1="147.848" y1="138.442" x2="85.7104" y2="152.756" gradientUnits="userSpaceOnUse">
<stop stop-color="#28B1A1"/>
<stop offset="1" stop-color="#053987"/>
</linearGradient>
<linearGradient id="paint8_linear_118_617" x1="343.307" y1="117.169" x2="324.307" y2="155.807" gradientUnits="userSpaceOnUse">
<stop stop-color="#28B1A1"/>
<stop offset="1" stop-color="#053987"/>
</linearGradient>
<linearGradient id="paint9_linear_118_617" x1="343.307" y1="117.169" x2="324.307" y2="155.807" gradientUnits="userSpaceOnUse">
<stop stop-color="#28B1A1"/>
<stop offset="1" stop-color="#053987"/>
</linearGradient>
<linearGradient id="paint10_linear_118_617" x1="73.8128" y1="189.073" x2="54.088" y2="192.274" gradientUnits="userSpaceOnUse">
<stop stop-color="#28B1A1"/>
<stop offset="1" stop-color="#053987"/>
</linearGradient>
<linearGradient id="paint11_linear_118_617" x1="294.814" y1="0.00048798" x2="253.231" y2="20.9391" gradientUnits="userSpaceOnUse">
<stop stop-color="#28B1A1"/>
<stop offset="1" stop-color="#053987"/>
</linearGradient>
<clipPath id="clip0_118_617">
<rect width="571" height="306" fill="white" transform="matrix(-1 0 0 1 571 0)"/>
</clipPath>
</defs>
</svg>
