<svg width="567" height="738" viewBox="0 0 567 738" fill="none" xmlns="http://www.w3.org/2000/svg">
<path d="M650.339 268.693L657.786 282.316C658.675 284.029 658.852 287.442 657.557 288.872L429.86 545.561C424.933 551.008 417.199 554.073 409.934 555.158L257.067 574.057C254.748 574.398 252.456 573.295 251.274 571.272L242.113 555.689L650.339 268.693Z" fill="url(#paint0_linear_118_729)"/>
<path d="M498.581 286.38C488.047 287.722 478.338 292.782 471.204 300.648L245.504 549.514C242.97 552.307 245.296 556.742 249.035 556.247L394.107 537.043C403.484 535.801 415.834 530.96 422.219 523.981L646.821 274.749C649.387 271.944 647.064 267.464 643.294 267.945L498.581 286.38Z" stroke="white" stroke-width="4" stroke-miterlimit="10" stroke-linejoin="round"/>
<path opacity="0.765508" d="M247.995 551.533C247.3 552.299 247.768 553.189 248.564 553.083L393.094 533.773C402.472 532.531 413.185 529.374 419.57 522.395L644.452 272.532C644.487 272.493 644.952 271.985 644.506 271.473C644.074 270.976 643.517 271.172 643.517 271.172L247.995 551.533Z" fill="#494949"/>
<path d="M644.403 273.895C645.504 272.589 644.43 270.612 642.737 270.825L491.289 289.833C486.735 290.404 482.503 292.485 479.271 295.744L464.238 310.897L632.567 288.358L644.403 273.895Z" fill="white"/>
<path d="M247.955 550.726C246.882 551.978 247.937 553.88 249.593 553.68L397.687 535.798C402.141 535.261 415.639 530.865 418.792 527.74L436.556 508.935L261.507 532.526L247.955 550.726Z" fill="white"/>
<path opacity="0.456168" d="M335.635 530.18C334.302 527.608 327.513 528.482 320.47 532.131C313.428 535.78 308.798 540.823 310.131 543.394C311.463 545.966 318.252 545.092 325.296 541.443C332.338 537.794 336.967 532.751 335.635 530.18Z" fill="white" stroke="#48CA94" stroke-width="2" stroke-miterlimit="10" stroke-linejoin="round"/>
<path opacity="0.273789" d="M553.577 286.383L531.006 289.917" stroke="#48CA94" stroke-width="4" stroke-miterlimit="10" stroke-linecap="round" stroke-linejoin="round"/>
<path d="M395.695 266.65L392.581 341.994C392.581 341.994 377.485 362.661 356.525 345.543L357.118 268.251L371.704 263.08C371.704 263.08 385.463 255.854 395.695 266.65Z" fill="url(#paint1_linear_118_729)" stroke="white" stroke-width="2" stroke-miterlimit="10" stroke-linejoin="round"/>
<path d="M382.291 264.202C382.291 264.202 365.371 256.056 365.787 263.057C365.787 263.057 367.596 273.132 380.644 280.759C380.644 280.759 390.777 295.68 394.902 301.96L391.382 340.512C391.382 340.512 373.452 360.462 358.095 344.971C358.095 344.971 386.614 339.33 381.923 329.643C378.633 322.851 354.843 330.12 352.158 330.61C352.158 330.61 387.625 322.572 384.494 315.217C379.245 302.892 350.283 314.364 350.283 314.364C350.283 314.364 380.595 303.227 378.413 297.412C374.82 287.841 353.988 295.626 348.674 297.796C348.674 297.796 371.592 287.154 368.167 280.974C366.814 278.531 364.286 277.751 355.773 278.172C351.222 278.397 333.85 284.741 333.197 290.485C332.937 292.766 331.774 294.417 332.753 297.597C333.734 300.778 336.563 302.327 337.117 303.208C337.117 303.208 334.911 306.255 334.81 309.523C334.728 312.214 336.585 315.05 337.814 316.5C337.814 316.5 335.095 321.023 335.609 325.748C336.123 330.474 337.643 333.52 339.87 335.403C339.87 335.403 337.897 350.296 354.687 357.669C371.478 365.042 383.092 357.161 394.3 366.769C405.508 376.377 409.261 387.02 409.261 387.02C409.261 387.02 457.673 381.239 449.107 366.677C440.542 352.115 424.643 336.285 421.833 324.406C419.023 312.527 413.382 282.527 382.291 264.202Z" fill="#101010" stroke="white" stroke-width="2" stroke-miterlimit="10" stroke-linejoin="round"/>
<path d="M422.216 425.912C422.216 425.912 466.076 420.572 474.976 396.892C474.976 396.892 467.018 380.19 456.064 367.255C456.064 367.255 450.002 353.272 443.914 357.092C443.914 357.092 449.772 359.199 442.6 368.779C442.6 368.779 419.005 393.586 404.241 379.152C404.241 379.152 400.498 379.213 402.077 384.16C402.077 384.16 405.366 389.711 406.237 392.41C407.11 395.108 420.889 423.864 422.216 425.912Z" fill="url(#paint2_linear_118_729)" stroke="white" stroke-width="2" stroke-miterlimit="10" stroke-linejoin="round"/>
<path opacity="0.493855" d="M403.78 379.389C403.78 379.389 401.498 385.395 413.123 387.405C424.749 389.415 429.571 392.532 429.918 398.707C430.264 404.882 431.307 403.353 433.385 406.865C435.461 410.377 450.433 422.715 473.074 401.101C473.074 401.101 463.007 420.448 421.903 426.044C380.799 431.639 421.167 426.22 421.167 426.22C421.167 426.22 406.324 394.238 405.311 390.974C405.311 390.974 397.959 380.149 403.78 379.389Z" fill="#494949"/>
<path d="M425.052 223.937L430.429 224.595C430.429 224.595 433.333 232.582 433.104 239.264C432.874 245.946 429.512 251.324 429.512 251.324L423.969 251.169L425.052 223.937Z" fill="white" stroke="white" stroke-width="2" stroke-miterlimit="10" stroke-linejoin="round"/>
<path d="M365.871 205.295C365.871 205.295 383.08 212.153 383.394 231.018C383.709 249.884 379.468 255.993 370.452 262.673L408.077 268.23C408.077 268.23 425.07 260.316 427.425 238.113C429.01 223.16 413.886 208.363 413.886 208.363L365.871 205.295Z" fill="url(#paint3_linear_118_729)" stroke="white" stroke-width="2" stroke-miterlimit="10" stroke-linejoin="round"/>
<path d="M365.727 204.904L303.672 177.489C303.672 177.489 342.232 242.667 295.474 293.657L372.686 262.529C372.686 262.529 386.421 253.981 383.372 227.146C383.372 227.146 378.776 208.514 365.727 204.904Z" stroke="white" stroke-width="2" stroke-miterlimit="10" stroke-linejoin="round"/>
<path d="M314.057 207.224L290.011 215.159L290.963 250.442L312.805 261.496C312.805 261.496 321.458 221.997 314.057 207.224Z" fill="#F2F4D9" fill-opacity="0.147675" stroke="white" stroke-width="2" stroke-miterlimit="10" stroke-linejoin="round"/>
<path opacity="0.0375117" d="M303.271 177.426C303.271 177.426 318.268 196.178 317.793 223.995C317.793 223.995 378.531 218.675 379.797 217.992L424.279 222.463C424.279 222.463 414.674 208.919 414.431 208.942C414.187 208.965 372.603 207.024 372.603 207.024C372.603 207.024 304.451 177.397 303.271 177.426Z" fill="white"/>
<path d="M284.752 164.764C286.721 163.838 288.76 163.365 290.852 163.358C307.581 163.306 321.24 194.148 321.359 232.276C321.478 270.404 308.025 301.37 291.296 301.422C274.566 301.473 260.883 270.587 260.764 232.46C260.66 199.098 270.968 171.244 284.752 164.764ZM283.344 173.696C271.573 179.23 262.763 203.073 262.852 231.562C262.953 264.121 274.618 290.47 288.905 290.425C303.191 290.381 314.705 263.966 314.604 231.407C314.502 198.848 302.813 172.455 288.527 172.499C286.741 172.505 285.025 172.906 283.344 173.696Z" fill="url(#paint4_linear_118_729)" stroke="white" stroke-width="2" stroke-miterlimit="10" stroke-linejoin="round"/>
<path d="M300.886 231.969C300.281 221.258 295.266 212.831 289.684 213.146C284.103 213.462 280.07 222.4 280.675 233.111C281.28 243.822 286.295 252.249 291.876 251.934C297.458 251.618 301.492 242.679 300.886 231.969Z" fill="url(#paint5_linear_118_729)"/>
<path d="M297.097 232.868C296.633 224.673 292.796 218.224 288.526 218.466C284.255 218.707 281.169 225.546 281.632 233.742C282.095 241.937 285.933 248.384 290.203 248.143C294.473 247.902 297.559 241.063 297.097 232.868Z" fill="white"/>
<path d="M292.4 232.832C292.112 227.741 289.728 223.735 287.075 223.885C284.422 224.035 282.505 228.284 282.793 233.375C283.081 238.465 285.464 242.471 288.117 242.321C290.77 242.171 292.687 237.922 292.4 232.832Z" fill="url(#paint6_linear_118_729)"/>
<path d="M406.737 222.994L399.606 222.656" stroke="white" stroke-width="2" stroke-miterlimit="10" stroke-linecap="round" stroke-linejoin="round"/>
<path d="M410.834 235.533L403.703 235.195" stroke="white" stroke-width="2" stroke-miterlimit="10" stroke-linecap="round" stroke-linejoin="round"/>
<path d="M407.179 248.099L400.048 247.762" stroke="white" stroke-width="2" stroke-miterlimit="10" stroke-linecap="round" stroke-linejoin="round"/>
<path opacity="0.456168" d="M410.418 447.313C413.039 444.389 410.278 439.841 406.474 440.816L293.31 469.808C285.047 471.925 277.527 476.279 271.577 482.389L242.111 512.651C240.164 514.65 242.037 517.952 244.752 517.307L364.789 488.804C371.793 487.14 378.122 483.375 382.924 478.012L410.418 447.313Z" fill="white"/>
<path opacity="0.456168" d="M350.008 466.415C351.361 464.81 349.776 462.173 347.742 462.647L287.258 476.731C282.841 477.76 278.872 480.072 275.788 483.414L260.512 499.965C259.503 501.058 260.583 502.97 262.035 502.661L326.241 488.997C329.988 488.2 333.325 486.197 335.806 483.255L350.008 466.415Z" fill="white"/>
<path d="M382.291 264.202C382.291 264.202 365.371 256.056 365.787 263.057C365.787 263.057 367.596 273.132 380.644 280.759C380.644 280.759 390.777 295.68 394.902 301.96L391.382 340.512C391.382 340.512 373.452 360.462 358.095 344.971C358.095 344.971 386.614 339.33 381.923 329.643C378.633 322.851 354.843 330.12 352.158 330.61C352.158 330.61 387.625 322.572 384.494 315.217C379.245 302.892 350.283 314.364 350.283 314.364C350.283 314.364 380.595 303.227 378.413 297.412C374.82 287.841 353.988 295.626 348.674 297.796C348.674 297.796 371.592 287.154 368.167 280.974C366.814 278.531 364.286 277.751 355.773 278.172C351.222 278.397 333.85 284.741 333.197 290.485C332.937 292.766 331.774 294.417 332.753 297.597C333.734 300.778 336.563 302.327 337.117 303.208C337.117 303.208 334.911 306.255 334.81 309.523C334.728 312.214 336.585 315.05 337.814 316.5C337.814 316.5 335.095 321.023 335.609 325.748C336.123 330.474 337.643 333.52 339.87 335.403C339.87 335.403 337.897 350.296 354.687 357.669C371.478 365.042 383.092 357.161 394.3 366.769C397.509 369.52 405.426 383.717 412.056 383.652C428.582 383.489 447.876 363.419 445.189 359.858C437.766 350.023 423.696 332.287 421.833 324.406C419.023 312.527 413.382 282.527 382.291 264.202Z" fill="#101010" stroke="white" stroke-width="2" stroke-miterlimit="10" stroke-linejoin="round"/>
<path opacity="0.456168" d="M640.443 479.865C643.455 476.194 640.316 470.749 635.631 471.514L540.797 487C534.184 488.08 528.111 491.309 523.518 496.188L423.61 602.3C420.312 605.803 423.163 611.519 427.947 610.991L524.486 600.32C536.568 598.984 547.649 592.975 555.359 583.578L640.443 479.865Z" fill="white"/>
<path d="M601.828 502.828C603.707 500.538 601.85 497.123 598.906 497.456L535.314 504.648C531.229 505.11 527.441 507.006 524.622 509.999L476.505 561.105C474.44 563.298 476.152 566.885 479.156 566.658L546.695 561.562C551.425 561.205 555.804 558.928 558.814 555.26L601.828 502.828Z" fill="#1E1E1D" stroke="white" stroke-width="2" stroke-miterlimit="10" stroke-linejoin="round"/>
<mask id="mask0_118_729" style="mask-type:luminance" maskUnits="userSpaceOnUse" x="475" y="497" width="128" height="70">
<path d="M601.828 502.828C603.707 500.538 601.85 497.123 598.906 497.456L535.314 504.648C531.229 505.11 527.441 507.006 524.622 509.999L476.505 561.105C474.44 563.298 476.152 566.885 479.156 566.658L546.695 561.562C551.425 561.205 555.804 558.928 558.814 555.26L601.828 502.828Z" fill="white"/>
</mask>
<g mask="url(#mask0_118_729)">
<path opacity="0.450023" d="M591.741 517.763C591.741 517.763 562.234 544.978 542.868 527.271C523.502 509.565 562.011 500.049 558.572 523.232C555.135 546.413 496.139 565.494 492.597 533.271" stroke="white" stroke-miterlimit="10" stroke-linejoin="round"/>
</g>
<path d="M522.54 573.993C524.477 572.829 523.26 570.658 520.76 570.818L489.892 572.79L478.143 573.541C477.706 573.569 477.281 573.674 476.909 573.847C474.646 574.899 475.739 577.326 478.404 577.166L520.687 574.644C521.243 574.611 521.776 574.454 522.206 574.195L522.54 573.993Z" fill="white"/>
<path d="M539.902 579.33L480.2 583.749L461.079 585.164L447.484 596.377L529.198 590.968L539.902 579.33Z" fill="white"/>
<path d="M533.819 570.001C533.267 568.978 531.301 568.969 529.426 569.981C527.552 570.992 526.48 572.641 527.032 573.664C527.584 574.687 529.551 574.695 531.425 573.684C533.3 572.672 534.371 571.023 533.819 570.001Z" stroke="white" stroke-miterlimit="10" stroke-linejoin="round"/>
<path d="M542.235 569.865C541.893 569.231 538.442 571.717 538.442 571.717C538.442 571.717 538.606 569.58 537.842 569.845C536.733 570.231 535.926 571.55 536.073 572.884C536.253 574.51 536.265 575.031 536.547 575.054C537.389 575.124 538.794 574.113 539.841 573.549C541.715 572.537 542.787 570.888 542.235 569.865Z" stroke="white" stroke-miterlimit="10" stroke-linejoin="round"/>
<path opacity="0.456168" d="M389.319 457.79C387.32 453.933 377.135 455.244 366.569 460.718C356.004 466.192 349.059 473.758 351.058 477.615C353.056 481.473 363.242 480.162 373.807 474.688C384.373 469.213 391.317 461.648 389.319 457.79Z" fill="white"/>
<path opacity="0.456168" d="M515.279 199.283C517.115 198.292 519.405 198.977 520.396 200.812L536.133 229.972C537.123 231.807 536.439 234.098 534.603 235.089C534.424 235.185 527.184 239.237 527.184 239.237L527.038 250.974C527.038 250.974 517.435 244.617 516.944 244.786L502.346 252.497C500.511 253.488 498.219 252.803 497.229 250.968L481.492 221.808C480.501 219.973 481.187 217.682 483.022 216.692L515.279 199.283Z" fill="white"/>
<path opacity="0.542427" d="M516.776 206.642C516.27 205.704 515.099 205.354 514.162 205.86L489.134 219.367C488.196 219.874 487.847 221.044 488.353 221.981L500.575 244.629C501.082 245.567 502.251 245.917 503.189 245.41L528.217 231.903C529.154 231.398 529.505 230.228 528.998 229.29L516.776 206.642Z" fill="#31C8B6"/>
<path d="M517.361 219.95C516.288 215.511 513.32 214.649 510.797 215.419C508.274 216.19 507.271 223.032 507.271 223.032C507.271 223.032 501.787 220.163 499.642 221.61C496.741 223.568 497.029 226.635 500.155 229.853C503.281 233.07 513.032 233.707 513.032 233.707C513.032 233.707 518.435 224.388 517.361 219.95Z" fill="white"/>
<defs>
<linearGradient id="paint0_linear_118_729" x1="590.748" y1="340.727" x2="636.097" y2="487.746" gradientUnits="userSpaceOnUse">
<stop stop-color="#7CE881"/>
<stop offset="1" stop-color="#016BFF"/>
</linearGradient>
<linearGradient id="paint1_linear_118_729" x1="372.363" y1="260.023" x2="339.071" y2="284.214" gradientUnits="userSpaceOnUse">
<stop stop-color="#28B1A1"/>
<stop offset="1" stop-color="#053987"/>
</linearGradient>
<linearGradient id="paint2_linear_118_729" x1="438.595" y1="359.951" x2="411.425" y2="380.986" gradientUnits="userSpaceOnUse">
<stop stop-color="#28B1A1"/>
<stop offset="1" stop-color="#053987"/>
</linearGradient>
<linearGradient id="paint3_linear_118_729" x1="402.495" y1="206.961" x2="390.817" y2="271.844" gradientUnits="userSpaceOnUse">
<stop stop-color="#7CE881"/>
<stop offset="1" stop-color="#016BFF"/>
</linearGradient>
<linearGradient id="paint4_linear_118_729" x1="280.529" y1="167.013" x2="240.616" y2="194.339" gradientUnits="userSpaceOnUse">
<stop stop-color="#28B1A1"/>
<stop offset="1" stop-color="#053987"/>
</linearGradient>
<linearGradient id="paint5_linear_118_729" x1="287.785" y1="213.579" x2="276.118" y2="221.585" gradientUnits="userSpaceOnUse">
<stop stop-color="#28B1A1"/>
<stop offset="1" stop-color="#053987"/>
</linearGradient>
<linearGradient id="paint6_linear_118_729" x1="286.173" y1="224.091" x2="280.627" y2="227.896" gradientUnits="userSpaceOnUse">
<stop stop-color="#28B1A1"/>
<stop offset="1" stop-color="#053987"/>
</linearGradient>
</defs>
</svg>
