<svg width="40" height="40" viewBox="0 0 40 40" fill="none" xmlns="http://www.w3.org/2000/svg">
<path d="M20.5 4C29.6221 4 37 11.3779 37 20.5C37 29.6221 29.6221 37 20.5 37C11.3779 37 4 29.6221 4 20.5C4 11.3779 11.3779 4 20.5 4ZM17.4829 29.1979C24.79 29.1979 28.7971 23.14 28.7971 17.8836V17.365C29.575 16.7993 30.2586 16.0921 30.7771 15.2907C30.07 15.5971 29.2921 15.8093 28.4907 15.9271C29.3157 15.4321 29.9521 14.6543 30.235 13.735C29.4571 14.1829 28.6086 14.5129 27.7129 14.7014C26.9821 13.9236 25.945 13.4521 24.8136 13.4521C22.6214 13.4521 20.83 15.2436 20.83 17.4357C20.83 17.7421 20.8536 18.0486 20.9479 18.3314C17.6479 18.1664 14.7014 16.5871 12.745 14.1829C12.415 14.7721 12.2029 15.4557 12.2029 16.1864C12.2029 17.5536 12.91 18.7793 13.9707 19.4864C13.3107 19.4864 12.6979 19.2979 12.1793 18.9914V19.0386C12.1793 20.9714 13.5464 22.5743 15.3614 22.9514C15.0314 23.0457 14.6779 23.0929 14.3243 23.0929C14.065 23.0929 13.8293 23.0693 13.57 23.0221C14.065 24.6014 15.55 25.7564 17.2707 25.78C15.9036 26.8407 14.1829 27.4771 12.3207 27.4771C11.9907 27.4771 11.6843 27.4771 11.3779 27.43C13.1221 28.5614 15.22 29.2214 17.4593 29.2214" fill="white"/>
</svg>
