<svg width="48" height="48" viewBox="0 0 48 48" fill="none" xmlns="http://www.w3.org/2000/svg">
<path d="M11.6479 7.2639L23.9999 19.6159L36.2879 7.3279C36.5594 7.039 36.8863 6.80789 37.2493 6.64842C37.6122 6.48896 38.0036 6.40443 38.3999 6.3999C39.2486 6.3999 40.0626 6.73704 40.6627 7.33716C41.2628 7.93728 41.5999 8.75121 41.5999 9.5999C41.6074 9.99223 41.5346 10.3819 41.386 10.7451C41.2375 11.1083 41.0162 11.4373 40.7359 11.7119L28.2879 23.9999L40.7359 36.4479C41.2633 36.9639 41.5726 37.6626 41.5999 38.3999C41.5999 39.2486 41.2628 40.0625 40.6627 40.6626C40.0626 41.2628 39.2486 41.5999 38.3999 41.5999C37.9921 41.6168 37.5852 41.5488 37.2051 41.4C36.825 41.2513 36.48 41.0251 36.1919 40.7359L23.9999 28.3839L11.6799 40.7039C11.4096 40.9832 11.0865 41.2061 10.7295 41.3599C10.3725 41.5137 9.98862 41.5953 9.59993 41.5999C8.75124 41.5999 7.93731 41.2628 7.33719 40.6626C6.73708 40.0625 6.39993 39.2486 6.39993 38.3999C6.39247 38.0076 6.46526 37.6179 6.61384 37.2547C6.76241 36.8915 6.98364 36.5625 7.26393 36.2879L19.7119 23.9999L7.26393 11.5519C6.73653 11.0359 6.42726 10.3372 6.39993 9.5999C6.39993 8.75121 6.73708 7.93728 7.33719 7.33716C7.93731 6.73704 8.75124 6.3999 9.59993 6.3999C10.3679 6.4095 11.1039 6.7199 11.6479 7.2639Z" fill="white"/>
</svg>
