<svg width="140" height="22" viewBox="0 0 140 22" fill="none" xmlns="http://www.w3.org/2000/svg">
<path d="M3.18834 6.06627C1.06278 6.06627 0 5.17675 0 3.39771C0 2.40476 0.263064 1.7221 0.789192 1.34975C1.33637 0.956701 2.13608 0.760179 3.18834 0.760179C4.30373 0.760179 5.11397 0.956701 5.61905 1.34975C6.14518 1.7221 6.40824 2.40476 6.40824 3.39771C6.40824 5.17675 5.33494 6.06627 3.18834 6.06627ZM0.284109 21.3019V7.40055H6.02943V21.3019H0.284109Z" fill="white"/>
<path d="M10.204 21.3019V7.40055H14.7813L16.044 8.02115C16.9279 7.85566 17.9907 7.71085 19.2324 7.58673C20.4951 7.46261 21.6736 7.40055 22.768 7.40055H24.3463C25.3986 7.40055 26.2088 7.54536 26.777 7.83497C27.3453 8.12458 27.7451 8.4866 27.9766 8.92101C28.2292 9.35543 28.3765 9.80019 28.4186 10.2553C28.4817 10.6897 28.5133 11.0621 28.5133 11.3724V21.3019H22.7364V12.5515C22.7364 11.724 22.2313 11.3103 21.2211 11.3103H16.9911C16.5912 11.3103 16.3281 11.3517 16.2019 11.4344C16.0966 11.4965 16.044 11.6827 16.044 11.993V21.3019H10.204Z" fill="white"/>
<path d="M32.1534 21.3019V7.40055H36.7307L37.9934 8.02115C38.8773 7.85566 39.9401 7.71085 41.1818 7.58673C42.4445 7.46261 43.623 7.40055 44.7174 7.40055H46.2957C47.348 7.40055 48.1582 7.54536 48.7265 7.83497C49.2947 8.12458 49.6945 8.4866 49.926 8.92101C50.1786 9.35543 50.3259 9.80019 50.368 10.2553C50.4311 10.6897 50.4627 11.0621 50.4627 11.3724V21.3019H44.6858V12.5515C44.6858 11.724 44.1807 11.3103 43.1705 11.3103H38.9405C38.5406 11.3103 38.2776 11.3517 38.1513 11.4344C38.0461 11.4965 37.9934 11.6827 37.9934 11.993V21.3019H32.1534Z" fill="white"/>
<path d="M55.4287 21.3019V11.3103H52.8401V7.43158H55.4287V5.29053C55.4287 2.22892 57.1333 0.69812 60.5426 0.69812H62.7208C65.2462 0.69812 67.0561 0.811896 68.1505 1.03945C69.2658 1.267 69.8235 1.46352 69.8235 1.62901L68.8765 5.22847C68.5187 5.08366 67.8769 4.9492 66.9509 4.82508C66.0249 4.68027 64.9095 4.60787 63.6047 4.60787H62.6892C62.1631 4.60787 61.7738 4.70096 61.5212 4.88714C61.2897 5.07332 61.174 5.39396 61.174 5.84906V7.43158H67.1087V11.3103H61.174V21.3019H55.4287Z" fill="white"/>
<path d="M74.3392 21.3019C72.9502 21.3019 71.9085 21.1054 71.214 20.7123C70.5195 20.3193 70.0565 19.7814 69.825 19.0988C69.6146 18.3954 69.5093 17.5887 69.5093 16.6785V11.993C69.5093 11.1241 69.6251 10.3484 69.8566 9.66573C70.0881 8.96239 70.5406 8.41419 71.214 8.02115C71.9085 7.60742 72.9502 7.40055 74.3392 7.40055H83.115C84.504 7.40055 85.5352 7.60742 86.2086 8.02115C86.9031 8.41419 87.3556 8.96239 87.5661 9.66573C87.7976 10.3484 87.9133 11.1241 87.9133 11.993V16.6785C87.9133 17.5887 87.7976 18.3954 87.5661 19.0988C87.3556 19.7814 86.9031 20.3193 86.2086 20.7123C85.5352 21.1054 84.504 21.3019 83.115 21.3019H74.3392ZM76.8646 17.3921H80.6212C81.6313 17.3921 82.1259 16.9784 82.1049 16.151V12.5515C82.1049 12.1378 81.9891 11.8275 81.7576 11.6206C81.5472 11.4137 81.1683 11.3103 80.6212 11.3103H76.8962C76.349 11.3103 75.9597 11.4137 75.7282 11.6206C75.4967 11.8275 75.3809 12.1378 75.3809 12.5515V16.151C75.3599 16.9784 75.8544 17.3921 76.8646 17.3921Z" fill="white"/>
<path d="M91.6893 21.3019V4.1114L91.3737 1.62901H97.4347V21.3019H91.6893Z" fill="white"/>
<path d="M104.396 6.06627C102.271 6.06627 101.208 5.17675 101.208 3.39771C101.208 2.40476 101.471 1.7221 101.997 1.34975C102.544 0.956701 103.344 0.760179 104.396 0.760179C105.511 0.760179 106.322 0.956701 106.827 1.34975C107.353 1.7221 107.616 2.40476 107.616 3.39771C107.616 5.17675 106.543 6.06627 104.396 6.06627ZM101.492 21.3019V7.40055H107.237V21.3019H101.492Z" fill="white"/>
<path d="M115.926 21.3019C114.537 21.3019 113.495 21.1054 112.801 20.7123C112.106 20.3193 111.643 19.7814 111.412 19.0988C111.201 18.3954 111.096 17.5887 111.096 16.6785V11.993C111.096 11.1241 111.212 10.3484 111.443 9.66573C111.675 8.96239 112.127 8.41419 112.801 8.02115C113.495 7.60742 114.537 7.40055 115.926 7.40055H124.702C126.091 7.40055 127.122 7.60742 127.795 8.02115C128.49 8.41419 128.942 8.96239 129.153 9.66573C129.384 10.3484 129.5 11.1241 129.5 11.993V16.6785C129.5 17.5887 129.384 18.3954 129.153 19.0988C128.942 19.7814 128.49 20.3193 127.795 20.7123C127.122 21.1054 126.091 21.3019 124.702 21.3019H115.926ZM118.451 17.3921H122.208C123.218 17.3921 123.713 16.9784 123.692 16.151V12.5515C123.692 12.1378 123.576 11.8275 123.344 11.6206C123.134 11.4137 122.755 11.3103 122.208 11.3103H118.483C117.936 11.3103 117.546 11.4137 117.315 11.6206C117.083 11.8275 116.968 12.1378 116.968 12.5515V16.151C116.947 16.9784 117.441 17.3921 118.451 17.3921Z" fill="white"/>
<path d="M136.78 21.3019C134.655 21.3019 133.592 20.4124 133.592 18.6333C133.592 17.6404 133.855 16.9577 134.381 16.5854C134.928 16.1923 135.728 15.9958 136.78 15.9958C137.895 15.9958 138.706 16.1923 139.211 16.5854C139.737 16.9577 140 17.6404 140 18.6333C140 20.4124 138.927 21.3019 136.78 21.3019Z" fill="white"/>
</svg>
