<svg width="1728" height="1117" viewBox="0 0 1728 1117" fill="none" xmlns="http://www.w3.org/2000/svg">
<g clip-path="url(#clip0_133_670)">
<rect width="1728" height="1117" fill="#141414"/>
<g opacity="0.3" filter="url(#filter0_f_133_670)">
<circle cx="1608.5" cy="1347.5" r="469.5" transform="rotate(-56.8328 1608.5 1347.5)" fill="url(#paint0_linear_133_670)"/>
</g>
<g opacity="0.4" filter="url(#filter1_f_133_670)">
<circle cx="199.5" cy="-140.5" r="469.5" fill="url(#paint1_linear_133_670)"/>
</g>
<path d="M1811.34 268.693L1818.78 282.316C1819.67 284.029 1819.85 287.442 1818.56 288.872L1590.86 545.561C1585.93 551.008 1578.2 554.073 1570.93 555.158L1418.07 574.057C1415.75 574.398 1413.46 573.295 1412.27 571.272L1403.11 555.689L1811.34 268.693Z" fill="url(#paint2_linear_133_670)"/>
<path d="M1659.58 286.38C1649.05 287.722 1639.34 292.782 1632.2 300.648L1406.5 549.514C1403.97 552.307 1406.3 556.742 1410.03 556.247L1555.11 537.043C1564.48 535.801 1576.83 530.96 1583.22 523.981L1807.82 274.749C1810.39 271.944 1808.06 267.464 1804.29 267.945L1659.58 286.38Z" stroke="white" stroke-width="4" stroke-miterlimit="10" stroke-linejoin="round"/>
<path opacity="0.765508" d="M1408.99 551.533C1408.3 552.299 1408.77 553.189 1409.56 553.083L1554.09 533.773C1563.47 532.531 1574.18 529.374 1580.57 522.395L1805.45 272.532C1805.49 272.493 1805.95 271.985 1805.51 271.473C1805.07 270.976 1804.52 271.172 1804.52 271.172L1408.99 551.533Z" fill="#494949"/>
<path d="M1805.4 273.895C1806.5 272.589 1805.43 270.612 1803.74 270.825L1652.29 289.833C1647.74 290.404 1643.5 292.485 1640.27 295.744L1625.24 310.897L1793.57 288.358L1805.4 273.895Z" fill="white"/>
<path d="M1408.95 550.726C1407.88 551.978 1408.94 553.88 1410.59 553.68L1558.69 535.798C1563.14 535.261 1576.64 530.865 1579.79 527.74L1597.56 508.935L1422.51 532.526L1408.95 550.726Z" fill="white"/>
<path opacity="0.456168" d="M1496.63 530.18C1495.3 527.608 1488.51 528.482 1481.47 532.131C1474.43 535.78 1469.8 540.823 1471.13 543.394C1472.46 545.966 1479.25 545.092 1486.3 541.443C1493.34 537.794 1497.97 532.751 1496.63 530.18Z" fill="white" stroke="#48CA94" stroke-width="2" stroke-miterlimit="10" stroke-linejoin="round"/>
<path opacity="0.273789" d="M1714.58 286.383L1692.01 289.917" stroke="#48CA94" stroke-width="4" stroke-miterlimit="10" stroke-linecap="round" stroke-linejoin="round"/>
<path d="M1556.69 266.65L1553.58 341.994C1553.58 341.994 1538.48 362.661 1517.53 345.543L1518.12 268.251L1532.7 263.08C1532.7 263.08 1546.46 255.854 1556.69 266.65Z" fill="url(#paint3_linear_133_670)" stroke="white" stroke-width="2" stroke-miterlimit="10" stroke-linejoin="round"/>
<path d="M1543.29 264.202C1543.29 264.202 1526.37 256.056 1526.79 263.057C1526.79 263.057 1528.6 273.132 1541.64 280.759C1541.64 280.759 1551.78 295.68 1555.9 301.96L1552.38 340.512C1552.38 340.512 1534.45 360.462 1519.09 344.971C1519.09 344.971 1547.61 339.33 1542.92 329.643C1539.63 322.851 1515.84 330.12 1513.16 330.61C1513.16 330.61 1548.62 322.572 1545.49 315.217C1540.25 302.892 1511.28 314.364 1511.28 314.364C1511.28 314.364 1541.6 303.227 1539.41 297.412C1535.82 287.841 1514.99 295.626 1509.67 297.796C1509.67 297.796 1532.59 287.154 1529.17 280.974C1527.81 278.531 1525.29 277.751 1516.77 278.172C1512.22 278.397 1494.85 284.741 1494.2 290.486C1493.94 292.766 1492.77 294.417 1493.75 297.597C1494.73 300.778 1497.56 302.327 1498.12 303.208C1498.12 303.208 1495.91 306.255 1495.81 309.523C1495.73 312.214 1497.59 315.05 1498.81 316.5C1498.81 316.5 1496.09 321.023 1496.61 325.748C1497.12 330.474 1498.64 333.52 1500.87 335.403C1500.87 335.403 1498.9 350.296 1515.69 357.669C1532.48 365.042 1544.09 357.161 1555.3 366.769C1566.51 376.377 1570.26 387.02 1570.26 387.02C1570.26 387.02 1618.67 381.239 1610.11 366.677C1601.54 352.115 1585.64 336.285 1582.83 324.406C1580.02 312.527 1574.38 282.527 1543.29 264.202Z" fill="#101010" stroke="white" stroke-width="2" stroke-miterlimit="10" stroke-linejoin="round"/>
<path d="M1583.22 425.912C1583.22 425.912 1627.08 420.572 1635.98 396.892C1635.98 396.892 1628.02 380.19 1617.06 367.255C1617.06 367.255 1611 353.272 1604.91 357.092C1604.91 357.092 1610.77 359.199 1603.6 368.779C1603.6 368.779 1580 393.586 1565.24 379.152C1565.24 379.152 1561.5 379.213 1563.08 384.16C1563.08 384.16 1566.37 389.711 1567.24 392.41C1568.11 395.108 1581.89 423.864 1583.22 425.912Z" fill="url(#paint4_linear_133_670)" stroke="white" stroke-width="2" stroke-miterlimit="10" stroke-linejoin="round"/>
<path opacity="0.493855" d="M1564.78 379.389C1564.78 379.389 1562.5 385.395 1574.12 387.405C1585.75 389.415 1590.57 392.532 1590.92 398.707C1591.26 404.882 1592.31 403.353 1594.38 406.865C1596.46 410.377 1611.43 422.715 1634.07 401.101C1634.07 401.101 1624.01 420.448 1582.9 426.044C1541.8 431.639 1582.17 426.22 1582.17 426.22C1582.17 426.22 1567.32 394.238 1566.31 390.974C1566.31 390.974 1558.96 380.149 1564.78 379.389Z" fill="#494949"/>
<path d="M1586.05 223.937L1591.43 224.595C1591.43 224.595 1594.33 232.582 1594.1 239.264C1593.87 245.946 1590.51 251.324 1590.51 251.324L1584.97 251.169L1586.05 223.937Z" fill="white" stroke="white" stroke-width="2" stroke-miterlimit="10" stroke-linejoin="round"/>
<path d="M1526.87 205.295C1526.87 205.295 1544.08 212.153 1544.39 231.018C1544.71 249.884 1540.47 255.993 1531.45 262.673L1569.08 268.23C1569.08 268.23 1586.07 260.316 1588.42 238.113C1590.01 223.16 1574.89 208.363 1574.89 208.363L1526.87 205.295Z" fill="url(#paint5_linear_133_670)" stroke="white" stroke-width="2" stroke-miterlimit="10" stroke-linejoin="round"/>
<path d="M1526.73 204.904L1464.67 177.489C1464.67 177.489 1503.23 242.667 1456.47 293.657L1533.69 262.529C1533.69 262.529 1547.42 253.981 1544.37 227.146C1544.37 227.146 1539.78 208.514 1526.73 204.904Z" stroke="white" stroke-width="2" stroke-miterlimit="10" stroke-linejoin="round"/>
<path d="M1475.06 207.224L1451.01 215.159L1451.96 250.442L1473.8 261.496C1473.8 261.496 1482.46 221.997 1475.06 207.224Z" fill="#F2F4D9" fill-opacity="0.147675" stroke="white" stroke-width="2" stroke-miterlimit="10" stroke-linejoin="round"/>
<path opacity="0.0375117" d="M1464.27 177.426C1464.27 177.426 1479.27 196.178 1478.79 223.995C1478.79 223.995 1539.53 218.675 1540.8 217.992L1585.28 222.463C1585.28 222.463 1575.67 208.919 1575.43 208.942C1575.19 208.965 1533.6 207.024 1533.6 207.024C1533.6 207.024 1465.45 177.397 1464.27 177.426Z" fill="white"/>
<path d="M1445.75 164.764C1447.72 163.838 1449.76 163.365 1451.85 163.358C1468.58 163.306 1482.24 194.148 1482.36 232.276C1482.48 270.404 1469.03 301.37 1452.3 301.422C1435.57 301.473 1421.88 270.587 1421.76 232.46C1421.66 199.098 1431.97 171.244 1445.75 164.764ZM1444.34 173.696C1432.57 179.23 1423.76 203.073 1423.85 231.562C1423.95 264.121 1435.62 290.47 1449.9 290.425C1464.19 290.381 1475.71 263.966 1475.6 231.407C1475.5 198.848 1463.81 172.455 1449.53 172.499C1447.74 172.505 1446.03 172.906 1444.34 173.696Z" fill="url(#paint6_linear_133_670)" stroke="white" stroke-width="2" stroke-miterlimit="10" stroke-linejoin="round"/>
<path d="M1461.89 231.969C1461.28 221.258 1456.27 212.831 1450.68 213.146C1445.1 213.462 1441.07 222.4 1441.68 233.111C1442.28 243.822 1447.3 252.249 1452.88 251.934C1458.46 251.618 1462.49 242.679 1461.89 231.969Z" fill="url(#paint7_linear_133_670)"/>
<path d="M1458.1 232.868C1457.63 224.673 1453.8 218.224 1449.53 218.466C1445.26 218.707 1442.17 225.546 1442.63 233.742C1443.1 241.937 1446.93 248.384 1451.2 248.143C1455.47 247.902 1458.56 241.063 1458.1 232.868Z" fill="white"/>
<path d="M1453.4 232.832C1453.11 227.741 1450.73 223.735 1448.08 223.885C1445.42 224.035 1443.51 228.284 1443.79 233.375C1444.08 238.465 1446.46 242.471 1449.12 242.321C1451.77 242.171 1453.69 237.922 1453.4 232.832Z" fill="url(#paint8_linear_133_670)"/>
<path d="M1567.74 222.994L1560.61 222.656" stroke="white" stroke-width="2" stroke-miterlimit="10" stroke-linecap="round" stroke-linejoin="round"/>
<path d="M1571.83 235.533L1564.7 235.195" stroke="white" stroke-width="2" stroke-miterlimit="10" stroke-linecap="round" stroke-linejoin="round"/>
<path d="M1568.18 248.099L1561.05 247.762" stroke="white" stroke-width="2" stroke-miterlimit="10" stroke-linecap="round" stroke-linejoin="round"/>
<path opacity="0.456168" d="M1571.42 447.313C1574.04 444.389 1571.28 439.841 1567.47 440.816L1454.31 469.808C1446.05 471.925 1438.53 476.279 1432.58 482.389L1403.11 512.651C1401.16 514.65 1403.04 517.952 1405.75 517.307L1525.79 488.804C1532.79 487.14 1539.12 483.375 1543.92 478.012L1571.42 447.313Z" fill="white"/>
<path opacity="0.456168" d="M1511.01 466.415C1512.36 464.81 1510.78 462.173 1508.74 462.647L1448.26 476.731C1443.84 477.76 1439.87 480.072 1436.79 483.414L1421.51 499.965C1420.5 501.058 1421.58 502.97 1423.03 502.661L1487.24 488.997C1490.99 488.2 1494.33 486.197 1496.81 483.255L1511.01 466.415Z" fill="white"/>
<path d="M1543.29 264.202C1543.29 264.202 1526.37 256.056 1526.79 263.057C1526.79 263.057 1528.6 273.132 1541.64 280.759C1541.64 280.759 1551.78 295.68 1555.9 301.96L1552.38 340.512C1552.38 340.512 1534.45 360.462 1519.09 344.971C1519.09 344.971 1547.61 339.33 1542.92 329.643C1539.63 322.851 1515.84 330.12 1513.16 330.61C1513.16 330.61 1548.62 322.572 1545.49 315.217C1540.25 302.892 1511.28 314.364 1511.28 314.364C1511.28 314.364 1541.6 303.227 1539.41 297.412C1535.82 287.841 1514.99 295.626 1509.67 297.796C1509.67 297.796 1532.59 287.154 1529.17 280.974C1527.81 278.531 1525.29 277.751 1516.77 278.172C1512.22 278.397 1494.85 284.741 1494.2 290.486C1493.94 292.766 1492.77 294.417 1493.75 297.597C1494.73 300.778 1497.56 302.327 1498.12 303.208C1498.12 303.208 1495.91 306.255 1495.81 309.523C1495.73 312.214 1497.59 315.05 1498.81 316.5C1498.81 316.5 1496.09 321.023 1496.61 325.748C1497.12 330.474 1498.64 333.52 1500.87 335.403C1500.87 335.403 1498.9 350.296 1515.69 357.669C1532.48 365.042 1544.09 357.161 1555.3 366.769C1558.51 369.52 1566.43 383.717 1573.06 383.652C1589.58 383.489 1608.88 363.419 1606.19 359.858C1598.77 350.023 1584.7 332.287 1582.83 324.406C1580.02 312.527 1574.38 282.527 1543.29 264.202Z" fill="#101010" stroke="white" stroke-width="2" stroke-miterlimit="10" stroke-linejoin="round"/>
<path opacity="0.456168" d="M1801.44 479.865C1804.46 476.194 1801.32 470.749 1796.63 471.514L1701.8 487C1695.18 488.08 1689.11 491.309 1684.52 496.188L1584.61 602.3C1581.31 605.803 1584.16 611.519 1588.95 610.991L1685.49 600.32C1697.57 598.984 1708.65 592.975 1716.36 583.578L1801.44 479.865Z" fill="white"/>
<path d="M1762.83 502.828C1764.71 500.538 1762.85 497.123 1759.91 497.456L1696.31 504.648C1692.23 505.11 1688.44 507.006 1685.62 509.999L1637.5 561.105C1635.44 563.298 1637.15 566.885 1640.16 566.658L1707.69 561.562C1712.43 561.205 1716.8 558.928 1719.81 555.26L1762.83 502.828Z" fill="#1E1E1D" stroke="white" stroke-width="2" stroke-miterlimit="10" stroke-linejoin="round"/>
<mask id="mask0_133_670" style="mask-type:luminance" maskUnits="userSpaceOnUse" x="1636" y="497" width="128" height="70">
<path d="M1762.83 502.828C1764.71 500.538 1762.85 497.123 1759.91 497.456L1696.31 504.648C1692.23 505.11 1688.44 507.006 1685.62 509.999L1637.5 561.105C1635.44 563.298 1637.15 566.885 1640.16 566.658L1707.69 561.562C1712.43 561.205 1716.8 558.928 1719.81 555.26L1762.83 502.828Z" fill="white"/>
</mask>
<g mask="url(#mask0_133_670)">
<path opacity="0.450023" d="M1752.74 517.763C1752.74 517.763 1723.23 544.978 1703.87 527.271C1684.5 509.565 1723.01 500.049 1719.57 523.232C1716.14 546.413 1657.14 565.494 1653.6 533.271" stroke="white" stroke-miterlimit="10" stroke-linejoin="round"/>
</g>
<path d="M1683.54 573.993C1685.48 572.829 1684.26 570.658 1681.76 570.818L1650.89 572.79L1639.14 573.541C1638.71 573.569 1638.28 573.674 1637.91 573.847C1635.65 574.899 1636.74 577.326 1639.4 577.166L1681.69 574.644C1682.24 574.611 1682.78 574.454 1683.21 574.195L1683.54 573.993Z" fill="white"/>
<path d="M1700.9 579.33L1641.2 583.749L1622.08 585.164L1608.48 596.377L1690.2 590.968L1700.9 579.33Z" fill="white"/>
<path d="M1694.82 570.001C1694.27 568.978 1692.3 568.969 1690.43 569.981C1688.55 570.992 1687.48 572.641 1688.03 573.664C1688.58 574.687 1690.55 574.695 1692.42 573.684C1694.3 572.672 1695.37 571.023 1694.82 570.001Z" stroke="white" stroke-miterlimit="10" stroke-linejoin="round"/>
<path d="M1703.24 569.865C1702.89 569.231 1699.44 571.717 1699.44 571.717C1699.44 571.717 1699.61 569.58 1698.84 569.845C1697.73 570.231 1696.93 571.55 1697.07 572.884C1697.25 574.51 1697.26 575.031 1697.55 575.054C1698.39 575.124 1699.79 574.113 1700.84 573.549C1702.71 572.537 1703.79 570.888 1703.24 569.865Z" stroke="white" stroke-miterlimit="10" stroke-linejoin="round"/>
<path opacity="0.456168" d="M1550.32 457.79C1548.32 453.933 1538.13 455.244 1527.57 460.718C1517 466.192 1510.06 473.758 1512.06 477.615C1514.06 481.473 1524.24 480.162 1534.81 474.688C1545.37 469.213 1552.32 461.648 1550.32 457.79Z" fill="white"/>
<path opacity="0.456168" d="M1676.28 199.283C1678.12 198.292 1680.41 198.977 1681.4 200.812L1697.13 229.972C1698.12 231.807 1697.44 234.098 1695.6 235.089C1695.42 235.185 1688.18 239.237 1688.18 239.237L1688.04 250.974C1688.04 250.974 1678.43 244.617 1677.94 244.786L1663.35 252.497C1661.51 253.488 1659.22 252.803 1658.23 250.968L1642.49 221.808C1641.5 219.973 1642.19 217.682 1644.02 216.692L1676.28 199.283Z" fill="white"/>
<path opacity="0.542427" d="M1677.78 206.642C1677.27 205.704 1676.1 205.354 1675.16 205.86L1650.13 219.367C1649.2 219.874 1648.85 221.044 1649.35 221.981L1661.58 244.629C1662.08 245.567 1663.25 245.917 1664.19 245.41L1689.22 231.903C1690.15 231.398 1690.5 230.228 1690 229.29L1677.78 206.642Z" fill="#31C8B6"/>
<path d="M1678.36 219.95C1677.29 215.511 1674.32 214.649 1671.8 215.419C1669.27 216.19 1668.27 223.032 1668.27 223.032C1668.27 223.032 1662.79 220.163 1660.64 221.61C1657.74 223.568 1658.03 226.635 1661.16 229.853C1664.28 233.07 1674.03 233.707 1674.03 233.707C1674.03 233.707 1679.43 224.388 1678.36 219.95Z" fill="white"/>
<g clip-path="url(#clip1_133_670)">
<mask id="mask1_133_670" style="mask-type:luminance" maskUnits="userSpaceOnUse" x="0" y="811" width="571" height="306">
<path d="M0 811L571 811L571 1117L0 1117L0 811Z" fill="white"/>
</mask>
<g mask="url(#mask1_133_670)">
<path d="M569.685 1111.83L1.3159 1115.69Z" fill="white"/>
<path d="M569.685 1111.83L1.3159 1115.69" stroke="white" stroke-width="4" stroke-miterlimit="10" stroke-linejoin="round"/>
<path d="M346.324 903.886C344.848 895.658 337.676 889.669 329.301 889.669L89.0637 889.669C78.4477 889.669 70.3376 899.127 71.9766 909.595L97.6244 1073.37C98.9496 1081.83 106.29 1088.04 114.869 1087.96L358.456 1085.75C369.164 1085.65 377.211 1075.96 375.322 1065.44L346.324 903.886Z" fill="#1E1E1D" stroke="white" stroke-width="4" stroke-miterlimit="10" stroke-linejoin="round"/>
<path opacity="0.496108" d="M337.257 905.828C336.469 901.408 332.613 898.193 328.114 898.204L91.11 898.791C85.4175 898.805 81.0846 903.892 81.987 909.5L107.663 1069.21C108.389 1073.72 112.316 1077.03 116.9 1076.99L356.406 1074.65C362.134 1074.59 366.439 1069.41 365.435 1063.78L337.257 905.828Z" fill="white" fill-opacity="0.1" stroke="white" stroke-width="4" stroke-miterlimit="10" stroke-linejoin="round"/>
<mask id="mask2_133_670" style="mask-type:luminance" maskUnits="userSpaceOnUse" x="81" y="898" width="285" height="179">
<path d="M337.257 905.828C336.469 901.408 332.613 898.193 328.114 898.204L91.11 898.791C85.4175 898.805 81.0846 903.892 81.987 909.5L107.663 1069.21C108.389 1073.72 112.316 1077.03 116.9 1076.99L356.406 1074.65C362.134 1074.59 366.439 1069.41 365.435 1063.78L337.257 905.828Z" fill="white"/>
</mask>
<g mask="url(#mask2_133_670)">
<path opacity="0.0896536" d="M392.732 1041.93L122.549 844.752L94.0249 883.681L364.208 1080.86L392.732 1041.93Z" fill="white" fill-opacity="0.4"/>
<path opacity="0.0896536" d="M351.038 1081.57L80.8545 884.396L71.7657 896.801L341.949 1093.98L351.038 1081.57Z" fill="white" fill-opacity="0.4"/>
</g>
<path d="M496.701 1086.79C495.371 1086.79 488.386 1086.85 487.001 1086.85L105.1 1089.07C98.8176 1089.11 93.7546 1094.23 93.7908 1100.52C93.8276 1106.8 98.9504 1111.87 105.233 1111.83L487.133 1109.62C492.058 1109.59 498.114 1103.92 498.952 1099.34C499.74 1095.03 498.846 1086.79 496.701 1086.79Z" fill="white" stroke="#1E1E1D" stroke-width="4" stroke-miterlimit="10" stroke-linejoin="round"/>
<path d="M315.309 1087.85L105.1 1089.07C98.8178 1089.11 93.7548 1094.23 93.7909 1100.52C93.8278 1106.8 98.9506 1111.87 105.233 1111.83L305.337 1110.67C305.337 1110.67 312.621 1107.81 315.113 1102.11C317.607 1096.4 315.309 1087.85 315.309 1087.85Z" fill="white" stroke="#1E1E1D" stroke-width="4" stroke-miterlimit="10" stroke-linejoin="round"/>
<path d="M315.647 1087.96C316.188 1088.75 317.52 1098.06 314.897 1103.34C312.067 1109.05 305.242 1110.72 305.242 1110.72" stroke="#1E1E1D" stroke-width="4" stroke-miterlimit="10" stroke-linejoin="round"/>
<path d="M123.574 1102.15C123.574 1100.87 122.538 1099.84 121.26 1099.84H113.807C112.529 1099.84 111.493 1100.87 111.493 1102.15C111.493 1103.43 112.529 1104.46 113.807 1104.46H121.26C122.538 1104.46 123.574 1103.43 123.574 1102.15Z" fill="#272725"/>
<path d="M138.159 1102.15C138.159 1100.87 137.122 1099.84 135.844 1099.84H128.39C127.113 1099.84 126.077 1100.87 126.077 1102.15C126.077 1103.43 127.113 1104.46 128.39 1104.46H135.844C137.122 1104.46 138.159 1103.43 138.159 1102.15Z" fill="#272725"/>
<path opacity="0.312354" d="M189.864 892.277C188.847 888.278 185.241 885.478 181.107 885.478H146.274H42.3296C36.4589 885.478 32.147 890.978 33.5591 896.665L39.0154 918.636C40.021 922.687 43.6798 925.519 47.8608 925.484L186.478 924.331C192.338 924.283 196.602 918.765 195.16 913.096L189.864 892.277Z" fill="#1E1E1D" stroke="#1E1E1D" stroke-width="4" stroke-miterlimit="10" stroke-linejoin="round"/>
<path d="M198.254 880.15C197.237 876.152 193.63 873.352 189.496 873.352H50.7188C44.8482 873.352 40.5369 878.852 41.949 884.538L47.4053 906.51C48.4109 910.56 52.0697 913.393 56.2501 913.358L194.868 912.205C200.728 912.157 204.992 906.639 203.55 900.97L198.254 880.15Z" fill="white" stroke="url(#paint9_linear_133_670)" stroke-width="4" stroke-miterlimit="10" stroke-linejoin="round"/>
<path d="M187.883 886.156C187.673 885.329 186.927 884.748 186.071 884.748H174.965C173.753 884.748 172.863 885.883 173.152 887.057L173.175 887.15C173.381 887.989 174.139 888.576 175.004 888.569L186.087 888.476C187.297 888.465 188.178 887.327 187.883 886.156Z" fill="url(#paint10_linear_133_670)"/>
<path d="M192.636 899.551C192.427 898.723 191.681 898.143 190.825 898.143H179.719C178.507 898.143 177.616 899.277 177.905 900.452L177.928 900.544C178.135 901.383 178.892 901.97 179.757 901.963L190.841 901.87C192.05 901.86 192.932 900.722 192.636 899.551Z" fill="#B8B8AE"/>
<path d="M140.787 892.764C140.466 892.191 139.876 891.839 139.238 891.839H110.246C108.874 891.839 108.011 893.376 108.688 894.615L108.748 894.725C109.067 895.31 109.665 895.67 110.312 895.667L139.245 895.558C140.622 895.553 141.479 894.001 140.787 892.764Z" fill="url(#paint11_linear_133_670)"/>
<path d="M103.378 886.145C103.168 885.317 102.422 884.737 101.566 884.737H90.4603C89.2482 884.737 88.3577 885.871 88.647 887.046L88.6701 887.139C88.8766 887.978 89.6336 888.564 90.4992 888.557L101.582 888.465C102.792 888.454 103.673 887.316 103.378 886.145Z" fill="url(#paint12_linear_133_670)"/>
<path d="M108.131 899.539C107.922 898.712 107.176 898.131 106.32 898.131H95.2142C94.0021 898.131 93.1109 899.266 93.4003 900.44L93.4233 900.533C93.6298 901.372 94.3868 901.959 95.2524 901.952L106.336 901.859C107.546 901.849 108.427 900.71 108.131 899.539Z" fill="url(#paint13_linear_133_670)"/>
<path d="M169.37 885.451C169.017 885.007 168.48 884.748 167.911 884.748H125.538C123.99 884.748 123.118 886.525 124.066 887.746L124.154 887.858C124.508 888.314 125.053 888.58 125.631 888.578L167.917 888.466C169.473 888.462 170.338 886.668 169.37 885.451Z" fill="#B8B8AE"/>
<path d="M174.124 898.846C173.77 898.401 173.234 898.143 172.665 898.143H130.292C128.743 898.143 127.871 899.919 128.82 901.14L128.907 901.253C129.261 901.708 129.807 901.975 130.384 901.973L172.67 901.86C174.226 901.856 175.092 900.062 174.124 898.846Z" fill="#B8B8AE"/>
<path d="M189.626 892.53C189.273 892.086 188.735 891.827 188.167 891.827H145.794C144.246 891.827 143.373 893.604 144.322 894.825L144.409 894.937C144.763 895.393 145.309 895.659 145.886 895.657L188.172 895.545C189.729 895.541 190.593 893.747 189.626 892.53Z" fill="#B8B8AE"/>
<path d="M119.928 886.182C119.733 885.336 118.978 884.737 118.108 884.737H108.266C107.069 884.737 106.181 885.845 106.443 887.011L106.464 887.101C106.657 887.958 107.423 888.564 108.303 888.556L118.125 888.466C119.318 888.455 120.196 887.344 119.928 886.182Z" fill="#B8B8AE"/>
<path d="M124.681 899.577C124.486 898.731 123.731 898.131 122.861 898.131H113.02C111.823 898.131 110.934 899.24 111.197 900.405L111.217 900.495C111.41 901.352 112.177 901.958 113.057 901.95L122.878 901.86C124.072 901.849 124.95 900.739 124.681 899.577Z" fill="#B8B8AE"/>
<path d="M106.342 893.285C106.121 892.438 105.268 891.839 104.284 891.839H93.1632C91.8103 891.839 90.806 892.947 91.1033 894.112L91.1263 894.202C91.3447 895.06 92.2109 895.665 93.2053 895.658L104.304 895.568C105.653 895.556 106.645 894.446 106.342 893.285Z" fill="#B8B8AE"/>
<path d="M78.3844 882.14C77.926 880.434 76.3764 879.247 74.6059 879.247H53.3693C50.8095 879.247 48.9397 881.661 49.5836 884.133L55.2957 906.07C55.7555 907.838 57.3826 909.051 59.2117 908.99L80.4384 908.284C82.9555 908.2 84.7392 905.799 84.0867 903.372L78.3844 882.14Z" fill="#B8B8AE"/>
<path opacity="0.281455" d="M372.019 945.556C371.509 942.952 369.223 941.073 366.564 941.073H209.391C205.907 941.073 203.282 944.235 203.931 947.652L226.536 1066.65C227.043 1069.32 229.414 1071.23 232.136 1071.16L389.206 1067.2C392.644 1067.11 395.178 1063.96 394.519 1060.59L372.019 945.556Z" fill="#1E1E1D" stroke="#1E1E1D" stroke-width="6" stroke-miterlimit="10" stroke-linejoin="round"/>
<path d="M382.921 932.653C382.411 930.049 380.125 928.169 377.467 928.169H220.293C216.809 928.169 214.184 931.333 214.833 934.748L237.438 1053.75C237.946 1056.42 240.316 1058.33 243.038 1058.26L400.108 1054.29C403.546 1054.21 406.08 1051.06 405.421 1047.69L382.921 932.653Z" fill="#1E1E1D" stroke="url(#paint14_linear_133_670)" stroke-width="6" stroke-miterlimit="10" stroke-linejoin="round"/>
<path opacity="0.294476" d="M161.813 952.106C161.51 950.558 160.152 949.442 158.572 949.442H65.1796C63.1091 949.442 61.5497 951.321 61.9351 953.351L75.3674 1024.06C75.6686 1025.65 77.0774 1026.78 78.6947 1026.74L172.025 1024.39C174.068 1024.33 175.574 1022.46 175.183 1020.46L161.813 952.106Z" fill="url(#paint15_linear_133_670)" stroke="url(#paint16_linear_133_670)" stroke-width="6" stroke-miterlimit="10" stroke-linejoin="round"/>
<path opacity="0.294476" d="M205.796 1004.79C205.563 1003.59 204.516 1002.73 203.299 1002.73H131.34C129.744 1002.73 128.543 1004.18 128.84 1005.75L139.19 1060.23C139.422 1061.45 140.507 1062.32 141.753 1062.29L213.665 1060.48C215.239 1060.44 216.399 1059 216.098 1057.45L205.796 1004.79Z" fill="white" stroke="white" stroke-width="6" stroke-miterlimit="10" stroke-linejoin="round"/>
<path d="M337.15 955.802C337.15 955.802 346.273 1003.47 350.359 1024.82C354.444 1046.16 353.491 1041.18 353.491 1041.18" stroke="#474747" stroke-width="2" stroke-miterlimit="10" stroke-linecap="round" stroke-linejoin="round"/>
<path d="M382.584 977.404C382.529 976.471 381.727 975.759 380.792 975.813L367.373 976.595C366.438 976.65 365.724 977.451 365.779 978.384L365.781 978.421C365.835 979.354 366.638 980.066 367.573 980.012L380.992 979.23C381.927 979.175 382.641 978.374 382.586 977.441L382.584 977.404Z" fill="#6F6D6D"/>
<path d="M364.833 978.439C364.779 977.506 363.977 976.793 363.041 976.848L350.411 977.584C349.476 977.639 348.763 978.44 348.817 979.372C348.872 980.306 349.674 981.019 350.609 980.964L363.239 980.228C364.174 980.173 364.888 979.372 364.833 978.439Z" fill="#6F6D6D"/>
<path d="M384.392 985.556C384.337 984.623 383.535 983.911 382.599 983.965L375.504 984.379C374.569 984.433 373.855 985.234 373.91 986.168C373.964 987.101 374.767 987.813 375.702 987.759L382.797 987.345C383.733 987.291 384.446 986.49 384.392 985.556Z" fill="#6F6D6D"/>
<path d="M390.104 1019.11C390.05 1018.18 389.247 1017.47 388.312 1017.52L381.061 1017.95C380.126 1018 379.412 1018.8 379.467 1019.73C379.521 1020.67 380.324 1021.38 381.259 1021.33L388.51 1020.9C389.445 1020.85 390.159 1020.05 390.104 1019.11Z" fill="#1E5F6D"/>
<path d="M359.202 987.026C359.148 986.092 358.345 985.379 357.41 985.434L352.219 985.737C351.284 985.792 350.57 986.592 350.624 987.526C350.679 988.459 351.481 989.171 352.417 989.117L357.608 988.814C358.543 988.759 359.257 987.958 359.202 987.026Z" fill="#6F6D6D"/>
<path d="M372.992 986.221C372.937 985.288 372.135 984.575 371.199 984.63L361.708 985.184C360.773 985.238 360.059 986.039 360.114 986.972C360.168 987.905 360.971 988.618 361.906 988.563L371.397 988.01C372.332 987.955 373.046 987.154 372.992 986.221Z" fill="#1E5F6D"/>
<path d="M378.549 1019.79C378.494 1018.85 377.697 1018.14 376.768 1018.2L357.765 1019.3C356.836 1019.36 356.127 1020.16 356.182 1021.09C356.236 1022.03 357.033 1022.74 357.962 1022.68L376.966 1021.58C377.894 1021.52 378.603 1020.72 378.549 1019.79Z" fill="#6F6D6D"/>
<path d="M364.283 994.514C364.229 993.581 363.426 992.869 362.491 992.923L354.039 993.416C353.104 993.471 352.391 994.271 352.445 995.205C352.5 996.138 353.302 996.85 354.237 996.796L362.689 996.303C363.624 996.248 364.338 995.448 364.283 994.514Z" fill="#1E5F6D"/>
<path d="M386.212 993.236C386.158 992.302 385.355 991.59 384.42 991.645L366.843 992.669C365.908 992.724 365.194 993.525 365.249 994.458C365.303 995.391 366.106 996.104 367.041 996.05L384.618 995.024C385.553 994.97 386.267 994.169 386.212 993.236Z" fill="#6F6D6D"/>
<path d="M387.578 1002.16C387.523 1001.23 386.72 1000.52 385.786 1000.57L355.249 1002.35C354.314 1002.4 353.601 1003.21 353.655 1004.14C353.71 1005.07 354.512 1005.78 355.447 1005.73L385.983 1003.95C386.918 1003.89 387.633 1003.09 387.578 1002.16Z" fill="#1E5F6D"/>
<path d="M388.382 1010.06C388.327 1009.12 387.525 1008.41 386.59 1008.47L375.504 1009.11C374.569 1009.17 373.855 1009.97 373.91 1010.9C373.964 1011.84 374.767 1012.55 375.702 1012.49L386.788 1011.85C387.723 1011.79 388.436 1010.99 388.382 1010.06Z" fill="#6F6D6D"/>
<path d="M372.768 1010.97C372.713 1010.03 371.911 1009.32 370.975 1009.38L364.062 1009.78C363.126 1009.83 362.413 1010.64 362.467 1011.57C362.522 1012.5 363.324 1013.21 364.26 1013.16L371.173 1012.76C372.109 1012.7 372.822 1011.9 372.768 1010.97Z" fill="#6F6D6D"/>
<path d="M361.6 1011.62C361.545 1010.69 360.743 1009.97 359.807 1010.03L356.053 1010.25C355.118 1010.3 354.404 1011.1 354.459 1012.04C354.514 1012.97 355.316 1013.68 356.251 1013.63L360.005 1013.41C360.941 1013.35 361.654 1012.55 361.6 1011.62Z" fill="#6F6D6D"/>
<path d="M390.521 1026.24C390.467 1025.31 389.664 1024.59 388.729 1024.65L379.425 1025.19L367.839 1025.87C366.903 1025.92 366.19 1026.72 366.244 1027.65C366.299 1028.59 367.101 1029.3 368.037 1029.25L388.927 1028.03C389.862 1027.97 390.576 1027.17 390.521 1026.24Z" fill="#6F6D6D"/>
<path d="M383.214 934.209C382.556 930.707 379.493 928.169 375.923 928.169H222.534C217.9 928.169 214.4 932.364 215.239 936.914L216.515 941.2C216.555 941.418 384.347 940.244 384.159 939.243L383.214 934.209Z" fill="url(#paint17_linear_133_670)" stroke="url(#paint18_linear_133_670)" stroke-width="5" stroke-miterlimit="10" stroke-linejoin="round"/>
<path d="M327.551 957.185C327.321 956.363 326.56 955.802 325.705 955.824L314.602 956.108C313.39 956.139 312.529 957.296 312.848 958.463L312.873 958.555C313.102 959.388 313.874 959.956 314.739 959.926L325.816 959.55C327.025 959.509 327.876 958.348 327.551 957.185Z" fill="#1E5F6D"/>
<path d="M332.137 972.443C331.907 971.621 331.146 971.06 330.291 971.081L319.189 971.365C317.977 971.397 317.115 972.553 317.435 973.721L317.46 973.812C317.688 974.646 318.46 975.213 319.325 975.184L330.402 974.807C331.612 974.766 332.464 973.606 332.137 972.443Z" fill="#1E5F6D"/>
<path d="M337.848 1001.22C337.618 1000.4 336.857 999.841 336.002 999.863L324.899 1000.15C323.688 1000.18 322.826 1001.33 323.146 1002.5L323.171 1002.59C323.399 1003.43 324.171 1003.99 325.036 1003.97L336.113 1003.59C337.323 1003.55 338.174 1002.39 337.848 1001.22Z" fill="#1E5F6D"/>
<path d="M336.007 991.449C335.776 990.626 335.015 990.065 334.16 990.088L323.058 990.372C321.846 990.403 320.985 991.56 321.304 992.726L321.329 992.819C321.557 993.652 322.33 994.22 323.194 994.19L334.272 993.813C335.481 993.773 336.333 992.612 336.007 991.449Z" fill="#6F6D6D"/>
<path d="M333.392 982.871C333.162 982.048 332.401 981.487 331.546 981.509L320.443 981.793C319.232 981.824 318.37 982.981 318.69 984.148L318.715 984.24C318.943 985.073 319.715 985.641 320.58 985.612L331.657 985.235C332.867 985.194 333.719 984.034 333.392 982.871Z" fill="#1E5F6D"/>
<path d="M345.254 1039.19C345.007 1038.37 344.235 1037.82 343.381 1037.86L332.286 1038.37C331.075 1038.42 330.236 1039.6 330.58 1040.76L330.607 1040.85C330.851 1041.68 331.634 1042.23 332.498 1042.18L343.566 1041.58C344.774 1041.52 345.602 1040.34 345.254 1039.19Z" fill="#6F6D6D"/>
<path d="M344.419 1031.89C344.173 1031.07 343.4 1030.52 342.545 1030.56L331.451 1031.07C330.24 1031.12 329.402 1032.3 329.745 1033.46L329.772 1033.55C330.017 1034.38 330.8 1034.93 331.664 1034.88L342.732 1034.29C343.94 1034.22 344.768 1033.04 344.419 1031.89Z" fill="#6F6D6D"/>
<path d="M341.977 1023.08C341.731 1022.26 340.959 1021.72 340.104 1021.76L329.009 1022.26C327.799 1022.32 326.96 1023.49 327.303 1024.65L327.33 1024.74C327.575 1025.57 328.358 1026.12 329.223 1026.07L340.29 1025.48C341.498 1025.41 342.326 1024.24 341.977 1023.08Z" fill="#6F6D6D"/>
<path d="M340.785 1016.16C340.557 1015.34 339.798 1014.78 338.942 1014.79L327.839 1015.04C326.628 1015.07 325.762 1016.22 326.078 1017.39L326.103 1017.48C326.328 1018.32 327.098 1018.89 327.963 1018.86L339.042 1018.52C340.251 1018.48 341.107 1017.33 340.785 1016.16Z" fill="#1E5F6D"/>
<path d="M280.64 964.996C280.305 964.432 279.706 964.094 279.068 964.11L250.086 964.853C248.714 964.887 247.891 966.446 248.6 967.668L248.662 967.776C248.996 968.352 249.603 968.698 250.251 968.679L279.17 967.829C280.548 967.788 281.364 966.215 280.64 964.996Z" fill="#1E5F6D"/>
<path d="M247.66 974.594C247.43 973.772 246.669 973.211 245.814 973.233L234.711 973.517C233.5 973.548 232.638 974.705 232.958 975.872L232.983 975.964C233.211 976.797 233.983 977.365 234.848 977.335L245.925 976.959C247.135 976.918 247.986 975.757 247.66 974.594Z" fill="#1E5F6D"/>
<path d="M253.371 1003.38C253.14 1002.55 252.379 1001.99 251.524 1002.01L240.422 1002.3C239.21 1002.33 238.348 1003.49 238.668 1004.65L238.693 1004.75C238.922 1005.58 239.693 1006.15 240.559 1006.12L251.636 1005.74C252.844 1005.7 253.696 1004.54 253.371 1003.38Z" fill="#1E5F6D"/>
<path d="M251.529 993.601C251.299 992.778 250.538 992.217 249.683 992.239L238.58 992.523C237.369 992.554 236.507 993.711 236.827 994.878L236.852 994.97C237.08 995.804 237.852 996.371 238.717 996.341L249.794 995.965C251.004 995.924 251.855 994.763 251.529 993.601Z" fill="#1E5F6D"/>
<path d="M257.559 1026.91C257.312 1026.09 256.541 1025.54 255.686 1025.58L244.592 1026.09C243.38 1026.14 242.542 1027.32 242.885 1028.48L242.912 1028.57C243.157 1029.4 243.94 1029.95 244.804 1029.9L255.871 1029.31C257.08 1029.24 257.908 1028.06 257.559 1026.91Z" fill="#1E5F6D"/>
<path d="M256.549 1019C256.297 1018.18 255.522 1017.64 254.667 1017.68L243.576 1018.25C242.365 1018.32 241.534 1019.5 241.884 1020.65L241.912 1020.74C242.161 1021.57 242.948 1022.12 243.812 1022.07L254.876 1021.4C256.083 1021.33 256.905 1020.15 256.549 1019Z" fill="#1E5F6D"/>
<path d="M309.026 956.954C308.662 956.519 308.118 956.274 307.55 956.289L265.191 957.373C263.643 957.413 262.817 959.211 263.796 960.408L263.886 960.518C264.252 960.964 264.804 961.216 265.382 961.2L307.65 960.005C309.207 959.961 310.025 958.146 309.026 956.954Z" fill="#6F6D6D"/>
<path d="M313.613 972.211C313.249 971.777 312.705 971.531 312.137 971.546L269.778 972.63C268.23 972.67 267.404 974.468 268.383 975.665L268.473 975.775C268.839 976.221 269.391 976.473 269.969 976.457L312.237 975.263C313.793 975.219 314.612 973.403 313.613 972.211Z" fill="#6F6D6D"/>
<path d="M319.324 1000.99C318.96 1000.56 318.416 1000.31 317.848 1000.33L275.489 1001.41C273.941 1001.45 273.115 1003.25 274.094 1004.45L274.184 1004.56C274.55 1005 275.102 1005.25 275.68 1005.24L317.948 1004.04C319.504 1004 320.323 1002.18 319.324 1000.99Z" fill="#6F6D6D"/>
<path d="M317.897 991.704C317.603 990.989 316.897 990.53 316.123 990.549L297.539 991.025C296.24 991.059 295.372 992.375 295.856 993.578L295.897 993.68C296.188 994.406 296.903 994.873 297.686 994.849L316.23 994.271C317.53 994.23 318.391 992.906 317.897 991.704Z" fill="#6F6D6D"/>
<path d="M292.95 992.22C292.656 991.505 291.95 991.045 291.176 991.065L272.592 991.541C271.293 991.574 270.425 992.891 270.909 994.094L270.949 994.196C271.241 994.922 271.956 995.388 272.739 995.364L291.282 994.786C292.583 994.746 293.444 993.422 292.95 992.22Z" fill="#1E5F6D"/>
<path d="M314.868 982.64C314.504 982.204 313.96 981.959 313.392 981.974L271.033 983.058C269.485 983.098 268.659 984.896 269.638 986.093L269.728 986.203C270.094 986.65 270.646 986.902 271.224 986.885L313.492 985.691C315.048 985.647 315.867 983.831 314.868 982.64Z" fill="#6F6D6D"/>
<path d="M325.894 1032.02C325.521 1031.6 324.972 1031.36 324.405 1031.39L282.076 1033.31C280.529 1033.38 279.738 1035.2 280.741 1036.38L280.834 1036.48C281.208 1036.92 281.765 1037.16 282.343 1037.14L324.579 1035.1C326.134 1035.03 326.916 1033.2 325.894 1032.02Z" fill="#1E5F6D"/>
<path d="M323.843 1023.63C323.519 1022.96 322.824 1022.54 322.078 1022.58L300.871 1023.54C299.542 1023.6 298.703 1024.99 299.269 1026.19L299.317 1026.29C299.639 1026.98 300.343 1027.4 301.099 1027.36L322.257 1026.29C323.588 1026.23 324.421 1024.83 323.843 1023.63Z" fill="#6F6D6D"/>
<path d="M322.255 1015.79C321.89 1015.36 321.346 1015.11 320.779 1015.13L278.42 1016.22C276.872 1016.26 276.046 1018.06 277.026 1019.26L277.116 1019.37C277.482 1019.82 278.035 1020.07 278.612 1020.05L320.88 1018.84C322.436 1018.8 323.254 1016.98 322.255 1015.79Z" fill="#6F6D6D"/>
<path d="M329.457 963.513C329.093 963.078 328.549 962.832 327.98 962.847L285.622 963.932C284.074 963.971 283.247 965.769 284.227 966.966L284.317 967.076C284.683 967.523 285.235 967.775 285.813 967.758L328.081 966.564C329.637 966.52 330.456 964.704 329.457 963.513Z" fill="#6F6D6D"/>
<path d="M337.99 1007.76C337.67 1007.54 337.291 1007.43 336.904 1007.44L259.716 1009.42C257.914 1009.46 257.222 1011.79 258.708 1012.81L258.87 1012.92C259.195 1013.14 259.582 1013.26 259.976 1013.25L337.002 1011.16C338.814 1011.11 339.495 1008.77 337.99 1007.76Z" fill="#6F6D6D"/>
<path d="M264.206 974.208C263.989 973.367 263.218 972.787 262.349 972.809L252.51 973.061C251.314 973.092 250.454 974.222 250.747 975.381L250.769 975.47C250.985 976.322 251.767 976.909 252.646 976.878L262.461 976.537C263.655 976.495 264.504 975.362 264.206 974.208Z" fill="#6F6D6D"/>
<path d="M269.917 1002.99C269.7 1002.15 268.929 1001.57 268.059 1001.59L258.221 1001.84C257.024 1001.87 256.165 1003 256.457 1004.16L256.48 1004.25C256.695 1005.1 257.477 1005.69 258.357 1005.66L268.172 1005.32C269.366 1005.28 270.215 1004.14 269.917 1002.99Z" fill="#6F6D6D"/>
<path d="M268.075 993.214C267.858 992.373 267.088 991.793 266.219 991.815L256.38 992.067C255.184 992.098 254.324 993.229 254.617 994.387L254.639 994.476C254.854 995.328 255.636 995.915 256.515 995.884L266.331 995.543C267.525 995.502 268.373 994.369 268.075 993.214Z" fill="#6F6D6D"/>
<path d="M265.461 984.636C265.244 983.795 264.473 983.215 263.604 983.237L253.765 983.489C252.568 983.52 251.709 984.65 252.002 985.809L252.024 985.898C252.239 986.75 253.021 987.336 253.901 987.306L263.716 986.965C264.91 986.923 265.758 985.79 265.461 984.636Z" fill="#6F6D6D"/>
<path d="M276.537 1035C276.302 1034.17 275.521 1033.6 274.652 1033.64L264.82 1034.09C263.624 1034.14 262.787 1035.29 263.103 1036.44L263.127 1036.53C263.359 1037.38 264.153 1037.95 265.032 1037.9L274.839 1037.36C276.031 1037.3 276.857 1036.15 276.537 1035Z" fill="#6F6D6D"/>
<path d="M295.519 1024.67C295.157 1024.13 294.536 1023.82 293.883 1023.85L262.542 1025.27C261.103 1025.34 260.279 1026.94 261.065 1028.14L261.134 1028.25C261.496 1028.8 262.125 1029.13 262.788 1029.09L294.06 1027.56C295.504 1027.49 296.321 1025.87 295.519 1024.67Z" fill="#6F6D6D"/>
<path d="M273.079 1018.18C272.84 1017.35 272.056 1016.79 271.186 1016.83L261.358 1017.34C260.162 1017.4 259.332 1018.55 259.655 1019.7L259.68 1019.79C259.917 1020.64 260.714 1021.2 261.593 1021.15L271.396 1020.55C272.588 1020.48 273.407 1019.33 273.079 1018.18Z" fill="#6F6D6D"/>
<path d="M255.586 1010.98C255.343 1010.14 254.475 1009.56 253.492 1009.59L242.375 1009.87C241.022 1009.91 240.047 1011.04 240.374 1012.2L240.399 1012.29C240.639 1013.14 241.521 1013.72 242.515 1013.69L253.607 1013.32C254.956 1013.27 255.919 1012.14 255.586 1010.98Z" fill="#6F6D6D"/>
<path d="M245.407 934.698C245.407 933.018 244.042 931.656 242.359 931.656C240.675 931.656 239.31 933.018 239.31 934.698C239.31 936.378 240.675 937.74 242.359 937.74C244.042 937.74 245.407 936.378 245.407 934.698Z" fill="white"/>
<path d="M235.587 934.698C235.587 933.018 234.222 931.656 232.538 931.656C230.855 931.656 229.49 933.018 229.49 934.698C229.49 936.378 230.855 937.74 232.538 937.74C234.222 937.74 235.587 936.378 235.587 934.698Z" fill="#31C8B6"/>
<path d="M226.47 934.698C226.47 933.018 225.105 931.656 223.421 931.656C221.738 931.656 220.373 933.018 220.373 934.698C220.373 936.378 221.738 937.74 223.421 937.74C225.105 937.74 226.47 936.378 226.47 934.698Z" fill="#1E1E1D"/>
<g opacity="0.346735">
<path d="M48.1231 1029.65C48.1231 1029.65 30.5966 1040.32 32.7519 1015.55C34.9079 990.778 46.4236 975.733 49.8062 976.015C49.8062 976.015 73.4348 1015.85 61.6514 1027.87C49.868 1039.9 49.599 1032.16 48.177 1030.97C46.7557 1029.77 48.1231 1029.65 48.1231 1029.65Z" fill="white" stroke="white" stroke-width="2" stroke-miterlimit="10" stroke-linejoin="round"/>
<path d="M37.7073 1038.53C37.7073 1038.53 55.3166 1046.4 54.9358 1033.12C54.555 1019.85 34.7437 991.687 2.6951 998.471C2.6951 998.471 6.63345 998.066 9.02288 1013.18C11.4123 1028.28 22.1269 1067.29 37.7073 1038.53Z" fill="#1E1E1D" stroke="white" stroke-width="2" stroke-miterlimit="10" stroke-linejoin="round"/>
<path d="M49.0056 1041.69C49.0056 1041.69 51.0537 1058.8 48.1868 1064.78C48.1868 1064.78 42.8975 1038.29 28.818 1026.93" stroke="white" stroke-width="2" stroke-miterlimit="10" stroke-linejoin="round"/>
<path d="M58.4379 1028.15C58.4379 1028.15 47.2057 1033.58 47.2149 1022.16C47.2234 1010.75 60.0125 996.361 72.303 1000.95C84.5941 1005.54 82.0764 1008.7 82.0764 1008.7C82.0764 1008.7 74.1768 1005.26 74.4938 1021.14C74.7628 1034.59 65.6102 1038.47 58.4379 1028.15Z" fill="url(#paint19_linear_133_670)" stroke="white" stroke-width="2" stroke-miterlimit="10" stroke-linejoin="round"/>
<path d="M61.8555 1019.83C61.8555 1019.83 53.9466 1029.57 52.7614 1063.33" stroke="white" stroke-width="2" stroke-miterlimit="10" stroke-linejoin="round"/>
<path d="M72.1792 1058.27L72.1792 1100.46H72.0766C67.4161 1108.39 58.8699 1113.75 48.9952 1113.75C39.1211 1113.75 30.5959 1108.39 25.9348 1100.46H25.8322L25.8322 1058.27H72.1792Z" fill="white" stroke="white" stroke-width="2" stroke-miterlimit="10" stroke-linejoin="round"/>
</g>
<path d="M306.242 846.323C312.411 846.323 317.803 850.49 319.361 856.447C321.583 864.945 315.223 873.261 306.424 873.382L243.375 874.239C236.633 874.331 230.843 869.476 229.794 862.828L229.662 861.955C228.366 853.744 234.717 846.323 243.045 846.323H306.242ZM244.251 851.137C239.188 851.137 235.098 855.236 235.098 860.289C235.098 865.342 239.188 869.441 244.251 869.441C249.314 869.441 253.421 865.342 253.421 860.289C253.421 855.236 249.314 851.137 244.251 851.137Z" fill="#31C8B6"/>
<path opacity="0.465736" d="M239.947 839.172C233.778 839.197 228.369 835.052 226.788 829.101C224.531 820.612 230.857 812.27 239.655 812.115L302.7 811.003C309.442 810.883 315.251 815.714 316.327 822.358L316.463 823.231C317.791 831.436 311.471 838.884 303.144 838.917L239.947 839.172ZM301.918 834.107C306.981 834.087 311.054 829.972 311.034 824.919C311.014 819.866 306.906 815.784 301.844 815.804C296.781 815.825 292.691 819.94 292.711 824.993C292.731 830.046 296.855 834.127 301.918 834.107Z" fill="url(#paint20_linear_133_670)"/>
</g>
</g>
<path opacity="0.1" d="M99.1192 479.928C98.5576 477.065 96.0418 475 93.1155 475L-79.8813 475C-83.7165 475 -86.6051 478.477 -85.8912 482.231L-61.0098 613.04C-60.4518 615.975 -57.8421 618.073 -54.8463 617.998L118.036 613.642C121.82 613.546 124.61 610.082 123.885 606.38L99.1192 479.928Z" fill="url(#paint21_linear_133_670)" stroke="url(#paint22_linear_133_670)" stroke-width="6" stroke-miterlimit="10" stroke-linejoin="round"/>
<path opacity="0.1" d="M200.806 646.792C200.374 644.589 198.432 643 196.174 643H62.7205C59.7613 643 57.5328 645.674 58.0841 648.563L77.2785 749.184C77.709 751.441 79.7216 753.056 82.0331 752.999L215.399 749.647C218.318 749.574 220.471 746.909 219.911 744.06L200.806 646.792Z" fill="white" fill-opacity="0.5"/>
<path opacity="0.1" d="M1637.88 718.928C1638.44 716.065 1640.96 714 1643.88 714H1816.88C1820.72 714 1823.61 717.477 1822.89 721.231L1798.01 852.04C1797.45 854.975 1794.84 857.073 1791.85 856.998L1618.96 852.642C1615.18 852.546 1612.39 849.082 1613.12 845.38L1637.88 718.928Z" fill="url(#paint23_linear_133_670)" stroke="url(#paint24_linear_133_670)" stroke-width="6" stroke-miterlimit="10" stroke-linejoin="round"/>
<path opacity="0.1" d="M1553.86 887.723C1554.17 886.141 1555.58 885 1557.21 885H1653.59C1655.73 885 1657.34 886.921 1656.94 888.995L1643.08 961.259C1642.77 962.88 1641.31 964.04 1639.64 963.999L1543.32 961.592C1541.21 961.539 1539.66 959.626 1540.06 957.58L1553.86 887.723Z" fill="white" fill-opacity="0.5"/>
</g>
<defs>
<filter id="filter0_f_133_670" x="838.946" y="577.946" width="1539.11" height="1539.11" filterUnits="userSpaceOnUse" color-interpolation-filters="sRGB">
<feFlood flood-opacity="0" result="BackgroundImageFix"/>
<feBlend mode="normal" in="SourceGraphic" in2="BackgroundImageFix" result="shape"/>
<feGaussianBlur stdDeviation="150" result="effect1_foregroundBlur_133_670"/>
</filter>
<filter id="filter1_f_133_670" x="-570" y="-910" width="1539" height="1539" filterUnits="userSpaceOnUse" color-interpolation-filters="sRGB">
<feFlood flood-opacity="0" result="BackgroundImageFix"/>
<feBlend mode="normal" in="SourceGraphic" in2="BackgroundImageFix" result="shape"/>
<feGaussianBlur stdDeviation="150" result="effect1_foregroundBlur_133_670"/>
</filter>
<linearGradient id="paint0_linear_133_670" x1="1303.32" y1="1112.75" x2="1796.3" y2="1817" gradientUnits="userSpaceOnUse">
<stop stop-color="#7CE881"/>
<stop offset="1" stop-color="#016BFF"/>
</linearGradient>
<linearGradient id="paint1_linear_133_670" x1="-105.675" y1="-375.25" x2="387.3" y2="329" gradientUnits="userSpaceOnUse">
<stop stop-color="#7CE881"/>
<stop offset="1" stop-color="#016BFF"/>
</linearGradient>
<linearGradient id="paint2_linear_133_670" x1="1751.75" y1="340.727" x2="1797.1" y2="487.746" gradientUnits="userSpaceOnUse">
<stop stop-color="#7CE881"/>
<stop offset="1" stop-color="#016BFF"/>
</linearGradient>
<linearGradient id="paint3_linear_133_670" x1="1533.36" y1="260.023" x2="1500.07" y2="284.214" gradientUnits="userSpaceOnUse">
<stop stop-color="#28B1A1"/>
<stop offset="1" stop-color="#053987"/>
</linearGradient>
<linearGradient id="paint4_linear_133_670" x1="1599.6" y1="359.951" x2="1572.43" y2="380.986" gradientUnits="userSpaceOnUse">
<stop stop-color="#28B1A1"/>
<stop offset="1" stop-color="#053987"/>
</linearGradient>
<linearGradient id="paint5_linear_133_670" x1="1563.5" y1="206.961" x2="1551.82" y2="271.844" gradientUnits="userSpaceOnUse">
<stop stop-color="#7CE881"/>
<stop offset="1" stop-color="#016BFF"/>
</linearGradient>
<linearGradient id="paint6_linear_133_670" x1="1441.53" y1="167.013" x2="1401.62" y2="194.339" gradientUnits="userSpaceOnUse">
<stop stop-color="#28B1A1"/>
<stop offset="1" stop-color="#053987"/>
</linearGradient>
<linearGradient id="paint7_linear_133_670" x1="1448.79" y1="213.579" x2="1437.12" y2="221.585" gradientUnits="userSpaceOnUse">
<stop stop-color="#28B1A1"/>
<stop offset="1" stop-color="#053987"/>
</linearGradient>
<linearGradient id="paint8_linear_133_670" x1="1447.17" y1="224.091" x2="1441.63" y2="227.896" gradientUnits="userSpaceOnUse">
<stop stop-color="#28B1A1"/>
<stop offset="1" stop-color="#053987"/>
</linearGradient>
<linearGradient id="paint9_linear_133_670" x1="164.645" y1="873.352" x2="98.0463" y2="915.752" gradientUnits="userSpaceOnUse">
<stop stop-color="#28B1A1"/>
<stop offset="1" stop-color="#053987"/>
</linearGradient>
<linearGradient id="paint10_linear_133_670" x1="184.353" y1="884.748" x2="178.111" y2="888.558" gradientUnits="userSpaceOnUse">
<stop stop-color="#28B1A1"/>
<stop offset="1" stop-color="#053987"/>
</linearGradient>
<linearGradient id="paint11_linear_133_670" x1="133.158" y1="891.839" x2="126.41" y2="900.859" gradientUnits="userSpaceOnUse">
<stop stop-color="#28B1A1"/>
<stop offset="1" stop-color="#053987"/>
</linearGradient>
<linearGradient id="paint12_linear_133_670" x1="99.848" y1="884.737" x2="93.6057" y2="888.547" gradientUnits="userSpaceOnUse">
<stop stop-color="#28B1A1"/>
<stop offset="1" stop-color="#053987"/>
</linearGradient>
<linearGradient id="paint13_linear_133_670" x1="104.601" y1="898.131" x2="98.3585" y2="901.94" gradientUnits="userSpaceOnUse">
<stop stop-color="#28B1A1"/>
<stop offset="1" stop-color="#053987"/>
</linearGradient>
<linearGradient id="paint14_linear_133_670" x1="359.418" y1="928.169" x2="254.845" y2="952.259" gradientUnits="userSpaceOnUse">
<stop stop-color="#28B1A1"/>
<stop offset="1" stop-color="#053987"/>
</linearGradient>
<linearGradient id="paint15_linear_133_670" x1="147.848" y1="949.442" x2="85.7104" y2="963.756" gradientUnits="userSpaceOnUse">
<stop stop-color="#28B1A1"/>
<stop offset="1" stop-color="#053987"/>
</linearGradient>
<linearGradient id="paint16_linear_133_670" x1="147.848" y1="949.442" x2="85.7104" y2="963.756" gradientUnits="userSpaceOnUse">
<stop stop-color="#28B1A1"/>
<stop offset="1" stop-color="#053987"/>
</linearGradient>
<linearGradient id="paint17_linear_133_670" x1="343.307" y1="928.169" x2="324.307" y2="966.807" gradientUnits="userSpaceOnUse">
<stop stop-color="#28B1A1"/>
<stop offset="1" stop-color="#053987"/>
</linearGradient>
<linearGradient id="paint18_linear_133_670" x1="343.307" y1="928.169" x2="324.307" y2="966.807" gradientUnits="userSpaceOnUse">
<stop stop-color="#28B1A1"/>
<stop offset="1" stop-color="#053987"/>
</linearGradient>
<linearGradient id="paint19_linear_133_670" x1="73.8128" y1="1000.07" x2="54.088" y2="1003.27" gradientUnits="userSpaceOnUse">
<stop stop-color="#28B1A1"/>
<stop offset="1" stop-color="#053987"/>
</linearGradient>
<linearGradient id="paint20_linear_133_670" x1="294.814" y1="811" x2="253.231" y2="831.939" gradientUnits="userSpaceOnUse">
<stop stop-color="#28B1A1"/>
<stop offset="1" stop-color="#053987"/>
</linearGradient>
<linearGradient id="paint21_linear_133_670" x1="73.25" y1="475" x2="-41.8356" y2="501.546" gradientUnits="userSpaceOnUse">
<stop stop-color="#28B1A1"/>
<stop offset="1" stop-color="#053987"/>
</linearGradient>
<linearGradient id="paint22_linear_133_670" x1="73.25" y1="475" x2="-41.8356" y2="501.546" gradientUnits="userSpaceOnUse">
<stop stop-color="#28B1A1"/>
<stop offset="1" stop-color="#053987"/>
</linearGradient>
<linearGradient id="paint23_linear_133_670" x1="1663.75" y1="714" x2="1778.84" y2="740.546" gradientUnits="userSpaceOnUse">
<stop stop-color="#28B1A1"/>
<stop offset="1" stop-color="#053987"/>
</linearGradient>
<linearGradient id="paint24_linear_133_670" x1="1663.75" y1="714" x2="1778.84" y2="740.546" gradientUnits="userSpaceOnUse">
<stop stop-color="#28B1A1"/>
<stop offset="1" stop-color="#053987"/>
</linearGradient>
<clipPath id="clip0_133_670">
<rect width="1728" height="1117" fill="white"/>
</clipPath>
<clipPath id="clip1_133_670">
<rect width="571" height="306" fill="white" transform="matrix(-1 0 0 1 571 811)"/>
</clipPath>
</defs>
</svg>
